<mxfile host="65bd71144e">
    <diagram id="CqRjM6kql5dcgG1QwvOQ" name="Page-1">
        <mxGraphModel dx="9216" dy="4452" grid="1" gridSize="10" guides="1" tooltips="1" connect="1" arrows="1" fold="1" page="1" pageScale="1" pageWidth="850" pageHeight="1100" math="0" shadow="0">
            <root>
                <mxCell id="0"/>
                <mxCell id="1" parent="0"/>
                <UserObject label="" mermaidData="{&#xa;  &quot;data&quot;: &quot;flowchart TD\n  %% Initialisation de l&#39;app\n  A[\&quot;main.dart\\nPoint d’entrée : configure GetX, thèmes et routes\&quot;] --&gt; B[\&quot;splash.dart\\nAffiche l’écran de démarrage\&quot;]\n  B --&gt; C[\&quot;setup.dart\\nCharge les preferences et init le cache\&quot;]\n  C --&gt; D[\&quot;onboarding.dart\\nGuide l’utilisateur à la 1re ouverture\&quot;]\n\n  %% Authentification\n  D --&gt; E[\&quot;login.dart\\nÉcran de connexion utilisateur\&quot;]\n  D --&gt; F[\&quot;signup.dart\\nÉcran d’enregistrement utilisateur\&quot;]\n\n  %% Layout principal\n  E --&gt; G[\&quot;layout.dart\\nScaffold global + zones responsive\&quot;]\n  F --&gt; G\n  G --&gt; H[\&quot;navigation_panel.dart\\nMenu latéral pour changer de section\&quot;]\n  G --&gt; I[\&quot;top_app_bar.dart\\nBarre d’app supérieure avec titre/icônes\&quot;]\n\n  %% Sections principales\n  H --&gt; J[\&quot;analyticspage.dart\\nAffiche graphiques de ventes\&quot;]\n  H --&gt; K[\&quot;productpage.dart\\nListe et recherche de produits\&quot;]\n  H --&gt; L[\&quot;sales_history.dart\\nHistorique des transactions\&quot;]\n  H --&gt; M[\&quot;settingspage.dart\\nParamètres de l’application\&quot;]\n  H --&gt; N[\&quot;notification_page.dart\\nAffiche alertes &amp; notifications\&quot;]\n\n  %% Flux Billing (depuis Products)\n  K --&gt; O[\&quot;billing.dart\\nDébut du processus de facturation\&quot;]\n  O --&gt; P[\&quot;add_products_page.dart\\nSélection des articles à facturer\&quot;]\n  P --&gt; Q[\&quot;customer_info_page.dart\\nSaisie des infos client\&quot;]\n  Q --&gt; R[\&quot;payments_page.dart\\nChoix du mode de paiement\&quot;]\n  R --&gt; S[\&quot;single_bill.dart\\nDétail d’une facture unique\&quot;]\n  S --&gt; T[\&quot;payment_success.dart\\nConfirmation &amp; récapitulatif\&quot;]\n\n  %% Controllers &amp; Services (interactions métier/API)\n  subgraph Controllers\n    LC[\&quot;login_controller.dart\\nLogique &amp; validation connexion\&quot;]\n    SC[\&quot;simple_ui_controller.dart\\nÉtat responsive/UI\&quot;]\n    PCC[\&quot;product_controller.dart\\nGestion du catalogue produits\&quot;]\n    ICC[\&quot;invoice_controller.dart\\nContrôle le workflow facturation\&quot;]\n    CDC[\&quot;customer_details_controller.dart\\nGestion des infos client\&quot;]\n  end\n\n  subgraph Services\n    LS[\&quot;login_service.dart\\nRequêtes HTTP auth\&quot;]\n    PS[\&quot;product_service.dart\\nRequêtes HTTP produits\&quot;]\n    IS[\&quot;invoice_service.dart\\nRequêtes HTTP facturation\&quot;]\n  end\n\n  %% Liaison pages → controllers → services\n  E --&gt; LC --&gt; LS\n  K --&gt; PCC --&gt; PS\n  O --&gt; ICC --&gt; IS\n  Q --&gt; CDC --&gt; IS\n\n  %% Modèles de données\n  subgraph Models\n    LReq[\&quot;login_request_model.dart\&quot;]\n    LRes[\&quot;login_response_model.dart\&quot;]\n    Prod[\&quot;product.dart\&quot;]\n    Inv[\&quot;invoice.dart\&quot;]\n    Nav[\&quot;navigation_items.dart\&quot;]\n  end\n\n  %% Services renvoient des modèles\n  LS --&gt; LRes\n  PS --&gt; Prod\n  IS --&gt; Inv\n  G --&gt; Nav\n&quot;&#xa;}" id="5">
                    <mxCell style="shape=image;noLabel=1;verticalAlign=top;imageAspect=1;image=data:image/svg+xml,PHN2ZyBhcmlhLXJvbGVkZXNjcmlwdGlvbj0iZmxvd2NoYXJ0LXYyIiByb2xlPSJncmFwaGljcy1kb2N1bWVudCBkb2N1bWVudCIgdmlld0JveD0iMCAwIDI4OTAuOTkwNzIyNjU2MjUgMjAwNCIgc3R5bGU9Im1heC13aWR0aDogMjg5MC45OTA3MjI2NTYyNXB4OyIgY2xhc3M9ImZsb3djaGFydCIgeG1sbnM9Imh0dHA6Ly93d3cudzMub3JnLzIwMDAvc3ZnIiB3aWR0aD0iMTAwJSIgaWQ9ImdlTWVybWFpZE91dHB1dC0xNzQ1MDczNjI4NDMwIj48c3R5bGU+I2dlTWVybWFpZE91dHB1dC0xNzQ1MDczNjI4NDMwe2ZvbnQtZmFtaWx5OiJ0cmVidWNoZXQgbXMiLHZlcmRhbmEsYXJpYWwsc2Fucy1zZXJpZjtmb250LXNpemU6MTZweDtmaWxsOiMwMDAwMDA7fSNnZU1lcm1haWRPdXRwdXQtMTc0NTA3MzYyODQzMCAuZXJyb3ItaWNvbntmaWxsOiM1NTIyMjI7fSNnZU1lcm1haWRPdXRwdXQtMTc0NTA3MzYyODQzMCAuZXJyb3ItdGV4dHtmaWxsOiM1NTIyMjI7c3Ryb2tlOiM1NTIyMjI7fSNnZU1lcm1haWRPdXRwdXQtMTc0NTA3MzYyODQzMCAuZWRnZS10aGlja25lc3Mtbm9ybWFse3N0cm9rZS13aWR0aDoxcHg7fSNnZU1lcm1haWRPdXRwdXQtMTc0NTA3MzYyODQzMCAuZWRnZS10aGlja25lc3MtdGhpY2t7c3Ryb2tlLXdpZHRoOjMuNXB4O30jZ2VNZXJtYWlkT3V0cHV0LTE3NDUwNzM2Mjg0MzAgLmVkZ2UtcGF0dGVybi1zb2xpZHtzdHJva2UtZGFzaGFycmF5OjA7fSNnZU1lcm1haWRPdXRwdXQtMTc0NTA3MzYyODQzMCAuZWRnZS10aGlja25lc3MtaW52aXNpYmxle3N0cm9rZS13aWR0aDowO2ZpbGw6bm9uZTt9I2dlTWVybWFpZE91dHB1dC0xNzQ1MDczNjI4NDMwIC5lZGdlLXBhdHRlcm4tZGFzaGVke3N0cm9rZS1kYXNoYXJyYXk6Mzt9I2dlTWVybWFpZE91dHB1dC0xNzQ1MDczNjI4NDMwIC5lZGdlLXBhdHRlcm4tZG90dGVke3N0cm9rZS1kYXNoYXJyYXk6Mjt9I2dlTWVybWFpZE91dHB1dC0xNzQ1MDczNjI4NDMwIC5tYXJrZXJ7ZmlsbDojNjY2O3N0cm9rZTojNjY2O30jZ2VNZXJtYWlkT3V0cHV0LTE3NDUwNzM2Mjg0MzAgLm1hcmtlci5jcm9zc3tzdHJva2U6IzY2Njt9I2dlTWVybWFpZE91dHB1dC0xNzQ1MDczNjI4NDMwIHN2Z3tmb250LWZhbWlseToidHJlYnVjaGV0IG1zIix2ZXJkYW5hLGFyaWFsLHNhbnMtc2VyaWY7Zm9udC1zaXplOjE2cHg7fSNnZU1lcm1haWRPdXRwdXQtMTc0NTA3MzYyODQzMCBwe21hcmdpbjowO30jZ2VNZXJtYWlkT3V0cHV0LTE3NDUwNzM2Mjg0MzAgLmxhYmVse2ZvbnQtZmFtaWx5OiJ0cmVidWNoZXQgbXMiLHZlcmRhbmEsYXJpYWwsc2Fucy1zZXJpZjtjb2xvcjojMDAwMDAwO30jZ2VNZXJtYWlkT3V0cHV0LTE3NDUwNzM2Mjg0MzAgLmNsdXN0ZXItbGFiZWwgdGV4dHtmaWxsOiMzMzM7fSNnZU1lcm1haWRPdXRwdXQtMTc0NTA3MzYyODQzMCAuY2x1c3Rlci1sYWJlbCBzcGFue2NvbG9yOiMzMzM7fSNnZU1lcm1haWRPdXRwdXQtMTc0NTA3MzYyODQzMCAuY2x1c3Rlci1sYWJlbCBzcGFuIHB7YmFja2dyb3VuZC1jb2xvcjp0cmFuc3BhcmVudDt9I2dlTWVybWFpZE91dHB1dC0xNzQ1MDczNjI4NDMwIC5sYWJlbCB0ZXh0LCNnZU1lcm1haWRPdXRwdXQtMTc0NTA3MzYyODQzMCBzcGFue2ZpbGw6IzAwMDAwMDtjb2xvcjojMDAwMDAwO30jZ2VNZXJtYWlkT3V0cHV0LTE3NDUwNzM2Mjg0MzAgLm5vZGUgcmVjdCwjZ2VNZXJtYWlkT3V0cHV0LTE3NDUwNzM2Mjg0MzAgLm5vZGUgY2lyY2xlLCNnZU1lcm1haWRPdXRwdXQtMTc0NTA3MzYyODQzMCAubm9kZSBlbGxpcHNlLCNnZU1lcm1haWRPdXRwdXQtMTc0NTA3MzYyODQzMCAubm9kZSBwb2x5Z29uLCNnZU1lcm1haWRPdXRwdXQtMTc0NTA3MzYyODQzMCAubm9kZSBwYXRoe2ZpbGw6I2VlZTtzdHJva2U6Izk5OTtzdHJva2Utd2lkdGg6MXB4O30jZ2VNZXJtYWlkT3V0cHV0LTE3NDUwNzM2Mjg0MzAgLnJvdWdoLW5vZGUgLmxhYmVsIHRleHQsI2dlTWVybWFpZE91dHB1dC0xNzQ1MDczNjI4NDMwIC5ub2RlIC5sYWJlbCB0ZXh0LCNnZU1lcm1haWRPdXRwdXQtMTc0NTA3MzYyODQzMCAuaW1hZ2Utc2hhcGUgLmxhYmVsLCNnZU1lcm1haWRPdXRwdXQtMTc0NTA3MzYyODQzMCAuaWNvbi1zaGFwZSAubGFiZWx7dGV4dC1hbmNob3I6bWlkZGxlO30jZ2VNZXJtYWlkT3V0cHV0LTE3NDUwNzM2Mjg0MzAgLm5vZGUgLmthdGV4IHBhdGh7ZmlsbDojMDAwO3N0cm9rZTojMDAwO3N0cm9rZS13aWR0aDoxcHg7fSNnZU1lcm1haWRPdXRwdXQtMTc0NTA3MzYyODQzMCAucm91Z2gtbm9kZSAubGFiZWwsI2dlTWVybWFpZE91dHB1dC0xNzQ1MDczNjI4NDMwIC5ub2RlIC5sYWJlbCwjZ2VNZXJtYWlkT3V0cHV0LTE3NDUwNzM2Mjg0MzAgLmltYWdlLXNoYXBlIC5sYWJlbCwjZ2VNZXJtYWlkT3V0cHV0LTE3NDUwNzM2Mjg0MzAgLmljb24tc2hhcGUgLmxhYmVse3RleHQtYWxpZ246Y2VudGVyO30jZ2VNZXJtYWlkT3V0cHV0LTE3NDUwNzM2Mjg0MzAgLm5vZGUuY2xpY2thYmxle2N1cnNvcjpwb2ludGVyO30jZ2VNZXJtYWlkT3V0cHV0LTE3NDUwNzM2Mjg0MzAgLnJvb3QgLmFuY2hvciBwYXRoe2ZpbGw6IzY2NiFpbXBvcnRhbnQ7c3Ryb2tlLXdpZHRoOjA7c3Ryb2tlOiM2NjY7fSNnZU1lcm1haWRPdXRwdXQtMTc0NTA3MzYyODQzMCAuYXJyb3doZWFkUGF0aHtmaWxsOiMzMzMzMzM7fSNnZU1lcm1haWRPdXRwdXQtMTc0NTA3MzYyODQzMCAuZWRnZVBhdGggLnBhdGh7c3Ryb2tlOiM2NjY7c3Ryb2tlLXdpZHRoOjIuMHB4O30jZ2VNZXJtYWlkT3V0cHV0LTE3NDUwNzM2Mjg0MzAgLmZsb3djaGFydC1saW5re3N0cm9rZTojNjY2O2ZpbGw6bm9uZTt9I2dlTWVybWFpZE91dHB1dC0xNzQ1MDczNjI4NDMwIC5lZGdlTGFiZWx7YmFja2dyb3VuZC1jb2xvcjp3aGl0ZTt0ZXh0LWFsaWduOmNlbnRlcjt9I2dlTWVybWFpZE91dHB1dC0xNzQ1MDczNjI4NDMwIC5lZGdlTGFiZWwgcHtiYWNrZ3JvdW5kLWNvbG9yOndoaXRlO30jZ2VNZXJtYWlkT3V0cHV0LTE3NDUwNzM2Mjg0MzAgLmVkZ2VMYWJlbCByZWN0e29wYWNpdHk6MC41O2JhY2tncm91bmQtY29sb3I6d2hpdGU7ZmlsbDp3aGl0ZTt9I2dlTWVybWFpZE91dHB1dC0xNzQ1MDczNjI4NDMwIC5sYWJlbEJrZ3tiYWNrZ3JvdW5kLWNvbG9yOnJnYmEoMjU1LCAyNTUsIDI1NSwgMC41KTt9I2dlTWVybWFpZE91dHB1dC0xNzQ1MDczNjI4NDMwIC5jbHVzdGVyIHJlY3R7ZmlsbDpoc2woMCwgMCUsIDk4LjkyMTU2ODYyNzUlKTtzdHJva2U6IzcwNzA3MDtzdHJva2Utd2lkdGg6MXB4O30jZ2VNZXJtYWlkT3V0cHV0LTE3NDUwNzM2Mjg0MzAgLmNsdXN0ZXIgdGV4dHtmaWxsOiMzMzM7fSNnZU1lcm1haWRPdXRwdXQtMTc0NTA3MzYyODQzMCAuY2x1c3RlciBzcGFue2NvbG9yOiMzMzM7fSNnZU1lcm1haWRPdXRwdXQtMTc0NTA3MzYyODQzMCBkaXYubWVybWFpZFRvb2x0aXB7cG9zaXRpb246YWJzb2x1dGU7dGV4dC1hbGlnbjpjZW50ZXI7bWF4LXdpZHRoOjIwMHB4O3BhZGRpbmc6MnB4O2ZvbnQtZmFtaWx5OiJ0cmVidWNoZXQgbXMiLHZlcmRhbmEsYXJpYWwsc2Fucy1zZXJpZjtmb250LXNpemU6MTJweDtiYWNrZ3JvdW5kOmhzbCgtMTYwLCAwJSwgOTMuMzMzMzMzMzMzMyUpO2JvcmRlcjoxcHggc29saWQgIzcwNzA3MDtib3JkZXItcmFkaXVzOjJweDtwb2ludGVyLWV2ZW50czpub25lO3otaW5kZXg6MTAwO30jZ2VNZXJtYWlkT3V0cHV0LTE3NDUwNzM2Mjg0MzAgLmZsb3djaGFydFRpdGxlVGV4dHt0ZXh0LWFuY2hvcjptaWRkbGU7Zm9udC1zaXplOjE4cHg7ZmlsbDojMDAwMDAwO30jZ2VNZXJtYWlkT3V0cHV0LTE3NDUwNzM2Mjg0MzAgcmVjdC50ZXh0e2ZpbGw6bm9uZTtzdHJva2Utd2lkdGg6MDt9I2dlTWVybWFpZE91dHB1dC0xNzQ1MDczNjI4NDMwIC5pY29uLXNoYXBlLCNnZU1lcm1haWRPdXRwdXQtMTc0NTA3MzYyODQzMCAuaW1hZ2Utc2hhcGV7YmFja2dyb3VuZC1jb2xvcjp3aGl0ZTt0ZXh0LWFsaWduOmNlbnRlcjt9I2dlTWVybWFpZE91dHB1dC0xNzQ1MDczNjI4NDMwIC5pY29uLXNoYXBlIHAsI2dlTWVybWFpZE91dHB1dC0xNzQ1MDczNjI4NDMwIC5pbWFnZS1zaGFwZSBwe2JhY2tncm91bmQtY29sb3I6d2hpdGU7cGFkZGluZzoycHg7fSNnZU1lcm1haWRPdXRwdXQtMTc0NTA3MzYyODQzMCAuaWNvbi1zaGFwZSByZWN0LCNnZU1lcm1haWRPdXRwdXQtMTc0NTA3MzYyODQzMCAuaW1hZ2Utc2hhcGUgcmVjdHtvcGFjaXR5OjAuNTtiYWNrZ3JvdW5kLWNvbG9yOndoaXRlO2ZpbGw6d2hpdGU7fSNnZU1lcm1haWRPdXRwdXQtMTc0NTA3MzYyODQzMCA6cm9vdHstLW1lcm1haWQtZm9udC1mYW1pbHk6InRyZWJ1Y2hldCBtcyIsdmVyZGFuYSxhcmlhbCxzYW5zLXNlcmlmO308L3N0eWxlPjxnPjxtYXJrZXIgb3JpZW50PSJhdXRvIiBtYXJrZXJIZWlnaHQ9IjgiIG1hcmtlcldpZHRoPSI4IiBtYXJrZXJVbml0cz0idXNlclNwYWNlT25Vc2UiIHJlZlk9IjUiIHJlZlg9IjUiIHZpZXdCb3g9IjAgMCAxMCAxMCIgY2xhc3M9Im1hcmtlciBmbG93Y2hhcnQtdjIiIGlkPSJnZU1lcm1haWRPdXRwdXQtMTc0NTA3MzYyODQzMF9mbG93Y2hhcnQtdjItcG9pbnRFbmQiPjxwYXRoIHN0eWxlPSJzdHJva2Utd2lkdGg6IDE7IHN0cm9rZS1kYXNoYXJyYXk6IDEsIDA7IiBjbGFzcz0iYXJyb3dNYXJrZXJQYXRoIiBkPSJNIDAgMCBMIDEwIDUgTCAwIDEwIHoiPjwvcGF0aD48L21hcmtlcj48bWFya2VyIG9yaWVudD0iYXV0byIgbWFya2VySGVpZ2h0PSI4IiBtYXJrZXJXaWR0aD0iOCIgbWFya2VyVW5pdHM9InVzZXJTcGFjZU9uVXNlIiByZWZZPSI1IiByZWZYPSI0LjUiIHZpZXdCb3g9IjAgMCAxMCAxMCIgY2xhc3M9Im1hcmtlciBmbG93Y2hhcnQtdjIiIGlkPSJnZU1lcm1haWRPdXRwdXQtMTc0NTA3MzYyODQzMF9mbG93Y2hhcnQtdjItcG9pbnRTdGFydCI+PHBhdGggc3R5bGU9InN0cm9rZS13aWR0aDogMTsgc3Ryb2tlLWRhc2hhcnJheTogMSwgMDsiIGNsYXNzPSJhcnJvd01hcmtlclBhdGgiIGQ9Ik0gMCA1IEwgMTAgMTAgTCAxMCAwIHoiPjwvcGF0aD48L21hcmtlcj48bWFya2VyIG9yaWVudD0iYXV0byIgbWFya2VySGVpZ2h0PSIxMSIgbWFya2VyV2lkdGg9IjExIiBtYXJrZXJVbml0cz0idXNlclNwYWNlT25Vc2UiIHJlZlk9IjUiIHJlZlg9IjExIiB2aWV3Qm94PSIwIDAgMTAgMTAiIGNsYXNzPSJtYXJrZXIgZmxvd2NoYXJ0LXYyIiBpZD0iZ2VNZXJtYWlkT3V0cHV0LTE3NDUwNzM2Mjg0MzBfZmxvd2NoYXJ0LXYyLWNpcmNsZUVuZCI+PGNpcmNsZSBzdHlsZT0ic3Ryb2tlLXdpZHRoOiAxOyBzdHJva2UtZGFzaGFycmF5OiAxLCAwOyIgY2xhc3M9ImFycm93TWFya2VyUGF0aCIgcj0iNSIgY3k9IjUiIGN4PSI1Ij48L2NpcmNsZT48L21hcmtlcj48bWFya2VyIG9yaWVudD0iYXV0byIgbWFya2VySGVpZ2h0PSIxMSIgbWFya2VyV2lkdGg9IjExIiBtYXJrZXJVbml0cz0idXNlclNwYWNlT25Vc2UiIHJlZlk9IjUiIHJlZlg9Ii0xIiB2aWV3Qm94PSIwIDAgMTAgMTAiIGNsYXNzPSJtYXJrZXIgZmxvd2NoYXJ0LXYyIiBpZD0iZ2VNZXJtYWlkT3V0cHV0LTE3NDUwNzM2Mjg0MzBfZmxvd2NoYXJ0LXYyLWNpcmNsZVN0YXJ0Ij48Y2lyY2xlIHN0eWxlPSJzdHJva2Utd2lkdGg6IDE7IHN0cm9rZS1kYXNoYXJyYXk6IDEsIDA7IiBjbGFzcz0iYXJyb3dNYXJrZXJQYXRoIiByPSI1IiBjeT0iNSIgY3g9IjUiPjwvY2lyY2xlPjwvbWFya2VyPjxtYXJrZXIgb3JpZW50PSJhdXRvIiBtYXJrZXJIZWlnaHQ9IjExIiBtYXJrZXJXaWR0aD0iMTEiIG1hcmtlclVuaXRzPSJ1c2VyU3BhY2VPblVzZSIgcmVmWT0iNS4yIiByZWZYPSIxMiIgdmlld0JveD0iMCAwIDExIDExIiBjbGFzcz0ibWFya2VyIGNyb3NzIGZsb3djaGFydC12MiIgaWQ9ImdlTWVybWFpZE91dHB1dC0xNzQ1MDczNjI4NDMwX2Zsb3djaGFydC12Mi1jcm9zc0VuZCI+PHBhdGggc3R5bGU9InN0cm9rZS13aWR0aDogMjsgc3Ryb2tlLWRhc2hhcnJheTogMSwgMDsiIGNsYXNzPSJhcnJvd01hcmtlclBhdGgiIGQ9Ik0gMSwxIGwgOSw5IE0gMTAsMSBsIC05LDkiPjwvcGF0aD48L21hcmtlcj48bWFya2VyIG9yaWVudD0iYXV0byIgbWFya2VySGVpZ2h0PSIxMSIgbWFya2VyV2lkdGg9IjExIiBtYXJrZXJVbml0cz0idXNlclNwYWNlT25Vc2UiIHJlZlk9IjUuMiIgcmVmWD0iLTEiIHZpZXdCb3g9IjAgMCAxMSAxMSIgY2xhc3M9Im1hcmtlciBjcm9zcyBmbG93Y2hhcnQtdjIiIGlkPSJnZU1lcm1haWRPdXRwdXQtMTc0NTA3MzYyODQzMF9mbG93Y2hhcnQtdjItY3Jvc3NTdGFydCI+PHBhdGggc3R5bGU9InN0cm9rZS13aWR0aDogMjsgc3Ryb2tlLWRhc2hhcnJheTogMSwgMDsiIGNsYXNzPSJhcnJvd01hcmtlclBhdGgiIGQ9Ik0gMSwxIGwgOSw5IE0gMTAsMSBsIC05LDkiPjwvcGF0aD48L21hcmtlcj48ZyBjbGFzcz0icm9vdCI+PGcgY2xhc3M9ImNsdXN0ZXJzIj48ZyBkYXRhLWxvb2s9ImNsYXNzaWMiIGlkPSJNb2RlbHMiIGNsYXNzPSJjbHVzdGVyIj48cmVjdCBoZWlnaHQ9IjEyOCIgd2lkdGg9IjI1MDguMDI4MDk5MDYwMDU4NiIgeT0iMTg2OCIgeD0iOCIgc3R5bGU9IiI+PC9yZWN0PjxnIHRyYW5zZm9ybT0idHJhbnNsYXRlKDEyMzcuMjI2NTQ5MTQ4NTU5NiwgMTg2OCkiIGNsYXNzPSJjbHVzdGVyLWxhYmVsIj48Zz48cmVjdCBzdHlsZT0ic3Ryb2tlOiBub25lIiBjbGFzcz0iYmFja2dyb3VuZCI+PC9yZWN0Pjx0ZXh0IHN0eWxlPSIiIHk9Ii0xMC4xIj48dHNwYW4gZHk9IjEuMWVtIiB5PSItMC4xZW0iIHg9IjAiIGNsYXNzPSJ0ZXh0LW91dGVyLXRzcGFuIj48dHNwYW4gZm9udC13ZWlnaHQ9Im5vcm1hbCIgY2xhc3M9InRleHQtaW5uZXItdHNwYW4iIGZvbnQtc3R5bGU9Im5vcm1hbCI+TW9kZWxzPC90c3Bhbj48L3RzcGFuPjwvdGV4dD48L2c+PC9nPjwvZz48ZyBkYXRhLWxvb2s9ImNsYXNzaWMiIGlkPSJTZXJ2aWNlcyIgY2xhc3M9ImNsdXN0ZXIiPjxyZWN0IGhlaWdodD0iMTI4IiB3aWR0aD0iMTkzOC44MjE4NTM2Mzc2OTUzIiB5PSIxNjkwIiB4PSIyOTMuNzgxMjUiIHN0eWxlPSIiPjwvcmVjdD48ZyB0cmFuc2Zvcm09InRyYW5zbGF0ZSgxMjM0LjEwNDY3NzIwMDMxNzQsIDE2OTApIiBjbGFzcz0iY2x1c3Rlci1sYWJlbCI+PGc+PHJlY3Qgc3R5bGU9InN0cm9rZTogbm9uZSIgY2xhc3M9ImJhY2tncm91bmQiPjwvcmVjdD48dGV4dCBzdHlsZT0iIiB5PSItMTAuMSI+PHRzcGFuIGR5PSIxLjFlbSIgeT0iLTAuMWVtIiB4PSIwIiBjbGFzcz0idGV4dC1vdXRlci10c3BhbiI+PHRzcGFuIGZvbnQtd2VpZ2h0PSJub3JtYWwiIGNsYXNzPSJ0ZXh0LWlubmVyLXRzcGFuIiBmb250LXN0eWxlPSJub3JtYWwiPlNlcnZpY2VzPC90c3Bhbj48L3RzcGFuPjwvdGV4dD48L2c+PC9nPjwvZz48ZyBkYXRhLWxvb2s9ImNsYXNzaWMiIGlkPSJDb250cm9sbGVycyIgY2xhc3M9ImNsdXN0ZXIiPjxyZWN0IGhlaWdodD0iMTI4IiB3aWR0aD0iMjA2Mi42MjgwOTc1MzQxNzk3IiB5PSIxNTEyIiB4PSIyODkuNTE4NzUzMDUxNzU3OCIgc3R5bGU9IiI+PC9yZWN0PjxnIHRyYW5zZm9ybT0idHJhbnNsYXRlKDEyODEuMzc2NTUyNTgxNzg3LCAxNTEyKSIgY2xhc3M9ImNsdXN0ZXItbGFiZWwiPjxnPjxyZWN0IHN0eWxlPSJzdHJva2U6IG5vbmUiIGNsYXNzPSJiYWNrZ3JvdW5kIj48L3JlY3Q+PHRleHQgc3R5bGU9IiIgeT0iLTEwLjEiPjx0c3BhbiBkeT0iMS4xZW0iIHk9Ii0wLjFlbSIgeD0iMCIgY2xhc3M9InRleHQtb3V0ZXItdHNwYW4iPjx0c3BhbiBmb250LXdlaWdodD0ibm9ybWFsIiBjbGFzcz0idGV4dC1pbm5lci10c3BhbiIgZm9udC1zdHlsZT0ibm9ybWFsIj5Db250cm9sbGVyczwvdHNwYW4+PC90c3Bhbj48L3RleHQ+PC9nPjwvZz48L2c+PC9nPjxnIGNsYXNzPSJlZGdlUGF0aHMiPjxwYXRoIG1hcmtlci1lbmQ9InVybCgjZ2VNZXJtYWlkT3V0cHV0LTE3NDUwNzM2Mjg0MzBfZmxvd2NoYXJ0LXYyLXBvaW50RW5kKSIgc3R5bGU9IiIgY2xhc3M9ImVkZ2UtdGhpY2tuZXNzLW5vcm1hbCBlZGdlLXBhdHRlcm4tc29saWQgZWRnZS10aGlja25lc3Mtbm9ybWFsIGVkZ2UtcGF0dGVybi1zb2xpZCBmbG93Y2hhcnQtbGluayIgaWQ9IkxfQV9CXzAiIGQ9Ik03MTguOTgxLDExMEw3MTguOTgxLDExNC4xNjdDNzE4Ljk4MSwxMTguMzMzLDcxOC45ODEsMTI2LjY2Nyw3MTguOTgxLDEzNC4zMzNDNzE4Ljk4MSwxNDIsNzE4Ljk4MSwxNDksNzE4Ljk4MSwxNTIuNUw3MTguOTgxLDE1NiI+PC9wYXRoPjxwYXRoIG1hcmtlci1lbmQ9InVybCgjZ2VNZXJtYWlkT3V0cHV0LTE3NDUwNzM2Mjg0MzBfZmxvd2NoYXJ0LXYyLXBvaW50RW5kKSIgc3R5bGU9IiIgY2xhc3M9ImVkZ2UtdGhpY2tuZXNzLW5vcm1hbCBlZGdlLXBhdHRlcm4tc29saWQgZWRnZS10aGlja25lc3Mtbm9ybWFsIGVkZ2UtcGF0dGVybi1zb2xpZCBmbG93Y2hhcnQtbGluayIgaWQ9IkxfQl9DXzEiIGQ9Ik03MTguOTgxLDIzOEw3MTguOTgxLDI0Mi4xNjdDNzE4Ljk4MSwyNDYuMzMzLDcxOC45ODEsMjU0LjY2Nyw3MTguOTgxLDI2Mi4zMzNDNzE4Ljk4MSwyNzAsNzE4Ljk4MSwyNzcsNzE4Ljk4MSwyODAuNUw3MTguOTgxLDI4NCI+PC9wYXRoPjxwYXRoIG1hcmtlci1lbmQ9InVybCgjZ2VNZXJtYWlkT3V0cHV0LTE3NDUwNzM2Mjg0MzBfZmxvd2NoYXJ0LXYyLXBvaW50RW5kKSIgc3R5bGU9IiIgY2xhc3M9ImVkZ2UtdGhpY2tuZXNzLW5vcm1hbCBlZGdlLXBhdHRlcm4tc29saWQgZWRnZS10aGlja25lc3Mtbm9ybWFsIGVkZ2UtcGF0dGVybi1zb2xpZCBmbG93Y2hhcnQtbGluayIgaWQ9IkxfQ19EXzIiIGQ9Ik03MTguOTgxLDM2Nkw3MTguOTgxLDM3MC4xNjdDNzE4Ljk4MSwzNzQuMzMzLDcxOC45ODEsMzgyLjY2Nyw3MTguOTgxLDM5MC4zMzNDNzE4Ljk4MSwzOTgsNzE4Ljk4MSw0MDUsNzE4Ljk4MSw0MDguNUw3MTguOTgxLDQxMiI+PC9wYXRoPjxwYXRoIG1hcmtlci1lbmQ9InVybCgjZ2VNZXJtYWlkT3V0cHV0LTE3NDUwNzM2Mjg0MzBfZmxvd2NoYXJ0LXYyLXBvaW50RW5kKSIgc3R5bGU9IiIgY2xhc3M9ImVkZ2UtdGhpY2tuZXNzLW5vcm1hbCBlZGdlLXBhdHRlcm4tc29saWQgZWRnZS10aGlja25lc3Mtbm9ybWFsIGVkZ2UtcGF0dGVybi1zb2xpZCBmbG93Y2hhcnQtbGluayIgaWQ9IkxfRF9FXzMiIGQ9Ik01ODguOTgxLDUwNy42MTFMNTcwLjEwMSw1MTMuNTFDNTUxLjIyMSw1MTkuNDA4LDUxMy40Niw1MzEuMjA0LDQ5NC41OCw1NDIuNjAyQzQ3NS43LDU1NCw0NzUuNyw1NjUsNDc1LjcsNTcwLjVMNDc1LjcsNTc2Ij48L3BhdGg+PHBhdGggbWFya2VyLWVuZD0idXJsKCNnZU1lcm1haWRPdXRwdXQtMTc0NTA3MzYyODQzMF9mbG93Y2hhcnQtdjItcG9pbnRFbmQpIiBzdHlsZT0iIiBjbGFzcz0iZWRnZS10aGlja25lc3Mtbm9ybWFsIGVkZ2UtcGF0dGVybi1zb2xpZCBlZGdlLXRoaWNrbmVzcy1ub3JtYWwgZWRnZS1wYXR0ZXJuLXNvbGlkIGZsb3djaGFydC1saW5rIiBpZD0iTF9EX0ZfNCIgZD0iTTg0OC45ODEsNTA0LjUyNkw4NzEuMTk1LDUxMC45MzlDODkzLjQwOCw1MTcuMzUxLDkzNy44MzUsNTMwLjE3NSw5NjAuMDQ5LDU0MC4wODhDOTgyLjI2Miw1NTAsOTgyLjI2Miw1NTcsOTgyLjI2Miw1NjAuNUw5ODIuMjYyLDU2NCI+PC9wYXRoPjxwYXRoIG1hcmtlci1lbmQ9InVybCgjZ2VNZXJtYWlkT3V0cHV0LTE3NDUwNzM2Mjg0MzBfZmxvd2NoYXJ0LXYyLXBvaW50RW5kKSIgc3R5bGU9IiIgY2xhc3M9ImVkZ2UtdGhpY2tuZXNzLW5vcm1hbCBlZGdlLXBhdHRlcm4tc29saWQgZWRnZS10aGlja25lc3Mtbm9ybWFsIGVkZ2UtcGF0dGVybi1zb2xpZCBmbG93Y2hhcnQtbGluayIgaWQ9IkxfRV9HXzUiIGQ9Ik01MTguMDM2LDY1OEw1MjQuNzMsNjY0LjE2N0M1MzEuNDI0LDY3MC4zMzMsNTQ0LjgxMiw2ODIuNjY3LDU5OC4xOTEsNjk2LjA0OUM2NTEuNTcsNzA5LjQzMiw3NDQuOTQsNzIzLjg2NCw3OTEuNjI1LDczMS4wOEw4MzguMzA5LDczOC4yOTUiPjwvcGF0aD48cGF0aCBtYXJrZXItZW5kPSJ1cmwoI2dlTWVybWFpZE91dHB1dC0xNzQ1MDczNjI4NDMwX2Zsb3djaGFydC12Mi1wb2ludEVuZCkiIHN0eWxlPSIiIGNsYXNzPSJlZGdlLXRoaWNrbmVzcy1ub3JtYWwgZWRnZS1wYXR0ZXJuLXNvbGlkIGVkZ2UtdGhpY2tuZXNzLW5vcm1hbCBlZGdlLXBhdHRlcm4tc29saWQgZmxvd2NoYXJ0LWxpbmsiIGlkPSJMX0ZfR182IiBkPSJNOTgyLjI2Miw2NzBMOTgyLjI2Miw2NzQuMTY3Qzk4Mi4yNjIsNjc4LjMzMyw5ODIuMjYyLDY4Ni42NjcsOTgxLjcxNCw2OTQuMzQxQzk4MS4xNjYsNzAyLjAxNiw5ODAuMDcsNzA5LjAzMiw5NzkuNTIyLDcxMi41NEw5NzguOTc0LDcxNi4wNDgiPjwvcGF0aD48cGF0aCBtYXJrZXItZW5kPSJ1cmwoI2dlTWVybWFpZE91dHB1dC0xNzQ1MDczNjI4NDMwX2Zsb3djaGFydC12Mi1wb2ludEVuZCkiIHN0eWxlPSIiIGNsYXNzPSJlZGdlLXRoaWNrbmVzcy1ub3JtYWwgZWRnZS1wYXR0ZXJuLXNvbGlkIGVkZ2UtdGhpY2tuZXNzLW5vcm1hbCBlZGdlLXBhdHRlcm4tc29saWQgZmxvd2NoYXJ0LWxpbmsiIGlkPSJMX0dfSF83IiBkPSJNOTcyLjI2Miw3OThMOTcyLjI2Miw4MDIuMTY3Qzk3Mi4yNjIsODA2LjMzMyw5NzIuMjYyLDgxNC42NjcsOTcyLjI2Miw4MjIuMzMzQzk3Mi4yNjIsODMwLDk3Mi4yNjIsODM3LDk3Mi4yNjIsODQwLjVMOTcyLjI2Miw4NDQiPjwvcGF0aD48cGF0aCBtYXJrZXItZW5kPSJ1cmwoI2dlTWVybWFpZE91dHB1dC0xNzQ1MDczNjI4NDMwX2Zsb3djaGFydC12Mi1wb2ludEVuZCkiIHN0eWxlPSIiIGNsYXNzPSJlZGdlLXRoaWNrbmVzcy1ub3JtYWwgZWRnZS1wYXR0ZXJuLXNvbGlkIGVkZ2UtdGhpY2tuZXNzLW5vcm1hbCBlZGdlLXBhdHRlcm4tc29saWQgZmxvd2NoYXJ0LWxpbmsiIGlkPSJMX0dfSV84IiBkPSJNODQyLjI2Miw3ODMuMzU5TDgwNy4wMDIsNzg5Ljk2NkM3NzEuNzQyLDc5Ni41NzIsNzAxLjIyMSw4MDkuNzg2LDY2NS45Niw4MTkuODkzQzYzMC43LDgzMCw2MzAuNyw4MzcsNjMwLjcsODQwLjVMNjMwLjcsODQ0Ij48L3BhdGg+PHBhdGggbWFya2VyLWVuZD0idXJsKCNnZU1lcm1haWRPdXRwdXQtMTc0NTA3MzYyODQzMF9mbG93Y2hhcnQtdjItcG9pbnRFbmQpIiBzdHlsZT0iIiBjbGFzcz0iZWRnZS10aGlja25lc3Mtbm9ybWFsIGVkZ2UtcGF0dGVybi1zb2xpZCBlZGdlLXRoaWNrbmVzcy1ub3JtYWwgZWRnZS1wYXR0ZXJuLXNvbGlkIGZsb3djaGFydC1saW5rIiBpZD0iTF9IX0pfOSIgZD0iTTgzNC45MTksOTE0LjQ5OUw3NDUuNTY4LDkyNC41ODNDNjU2LjIxNyw5MzQuNjY2LDQ3Ny41MTUsOTU0LjgzMywzODguMTY0LDk2OC40MTdDMjk4LjgxMyw5ODIsMjk4LjgxMyw5ODksMjk4LjgxMyw5OTIuNUwyOTguODEzLDk5NiI+PC9wYXRoPjxwYXRoIG1hcmtlci1lbmQ9InVybCgjZ2VNZXJtYWlkT3V0cHV0LTE3NDUwNzM2Mjg0MzBfZmxvd2NoYXJ0LXYyLXBvaW50RW5kKSIgc3R5bGU9IiIgY2xhc3M9ImVkZ2UtdGhpY2tuZXNzLW5vcm1hbCBlZGdlLXBhdHRlcm4tc29saWQgZWRnZS10aGlja25lc3Mtbm9ybWFsIGVkZ2UtcGF0dGVybi1zb2xpZCBmbG93Y2hhcnQtbGluayIgaWQ9IkxfSF9LXzEwIiBkPSJNMTEwOS42MDYsOTEwLjM5OUwxMjM5LjMzNSw5MjEuMTY2QzEzNjkuMDY1LDkzMS45MzMsMTYyOC41MjMsOTUzLjQ2NiwxNzU4LjI1Miw5NjcuNzMzQzE4ODcuOTgxLDk4MiwxODg3Ljk4MSw5ODksMTg4Ny45ODEsOTkyLjVMMTg4Ny45ODEsOTk2Ij48L3BhdGg+PHBhdGggbWFya2VyLWVuZD0idXJsKCNnZU1lcm1haWRPdXRwdXQtMTc0NTA3MzYyODQzMF9mbG93Y2hhcnQtdjItcG9pbnRFbmQpIiBzdHlsZT0iIiBjbGFzcz0iZWRnZS10aGlja25lc3Mtbm9ybWFsIGVkZ2UtcGF0dGVybi1zb2xpZCBlZGdlLXRoaWNrbmVzcy1ub3JtYWwgZWRnZS1wYXR0ZXJuLXNvbGlkIGZsb3djaGFydC1saW5rIiBpZD0iTF9IX0xfMTEiIGQ9Ik04MzQuOTE5LDkzMC40MTlMODAyLjQzOSw5MzcuODQ5Qzc2OS45NTgsOTQ1LjI3OSw3MDQuOTk4LDk2MC4xNCw2NzIuNTE4LDk3MS4wN0M2NDAuMDM3LDk4Miw2NDAuMDM3LDk4OSw2NDAuMDM3LDk5Mi41TDY0MC4wMzcsOTk2Ij48L3BhdGg+PHBhdGggbWFya2VyLWVuZD0idXJsKCNnZU1lcm1haWRPdXRwdXQtMTc0NTA3MzYyODQzMF9mbG93Y2hhcnQtdjItcG9pbnRFbmQpIiBzdHlsZT0iIiBjbGFzcz0iZWRnZS10aGlja25lc3Mtbm9ybWFsIGVkZ2UtcGF0dGVybi1zb2xpZCBlZGdlLXRoaWNrbmVzcy1ub3JtYWwgZWRnZS1wYXR0ZXJuLXNvbGlkIGZsb3djaGFydC1saW5rIiBpZD0iTF9IX01fMTIiIGQ9Ik05NzIuMjYyLDk1MEw5NzIuMjYyLDk1NC4xNjdDOTcyLjI2Miw5NTguMzMzLDk3Mi4yNjIsOTY2LjY2Nyw5NzIuMjYyLDk3NC4zMzNDOTcyLjI2Miw5ODIsOTcyLjI2Miw5ODksOTcyLjI2Miw5OTIuNUw5NzIuMjYyLDk5NiI+PC9wYXRoPjxwYXRoIG1hcmtlci1lbmQ9InVybCgjZ2VNZXJtYWlkT3V0cHV0LTE3NDUwNzM2Mjg0MzBfZmxvd2NoYXJ0LXYyLXBvaW50RW5kKSIgc3R5bGU9IiIgY2xhc3M9ImVkZ2UtdGhpY2tuZXNzLW5vcm1hbCBlZGdlLXBhdHRlcm4tc29saWQgZWRnZS10aGlja25lc3Mtbm9ybWFsIGVkZ2UtcGF0dGVybi1zb2xpZCBmbG93Y2hhcnQtbGluayIgaWQ9IkxfSF9OXzEzIiBkPSJNMTEwOS42MDYsOTI5LjgwMkwxMTQzLjE5NSw5MzcuMzM1QzExNzYuNzgzLDk0NC44NjgsMTI0My45Niw5NTkuOTM0LDEyNzcuNTQ5LDk3MC45NjdDMTMxMS4xMzcsOTgyLDEzMTEuMTM3LDk4OSwxMzExLjEzNyw5OTIuNUwxMzExLjEzNyw5OTYiPjwvcGF0aD48cGF0aCBtYXJrZXItZW5kPSJ1cmwoI2dlTWVybWFpZE91dHB1dC0xNzQ1MDczNjI4NDMwX2Zsb3djaGFydC12Mi1wb2ludEVuZCkiIHN0eWxlPSIiIGNsYXNzPSJlZGdlLXRoaWNrbmVzcy1ub3JtYWwgZWRnZS1wYXR0ZXJuLXNvbGlkIGVkZ2UtdGhpY2tuZXNzLW5vcm1hbCBlZGdlLXBhdHRlcm4tc29saWQgZmxvd2NoYXJ0LWxpbmsiIGlkPSJMX0tfT18xNCIgZD0iTTE5MTkuMTcsMTA3OEwxOTIyLjUwMiwxMDgyLjE2N0MxOTI1LjgzNCwxMDg2LjMzMywxOTMyLjQ5OCwxMDk0LjY2NywxOTM1LjgzLDExMDIuMzMzQzE5MzkuMTYyLDExMTAsMTkzOS4xNjIsMTExNywxOTM5LjE2MiwxMTIwLjVMMTkzOS4xNjIsMTEyNCI+PC9wYXRoPjxwYXRoIG1hcmtlci1lbmQ9InVybCgjZ2VNZXJtYWlkT3V0cHV0LTE3NDUwNzM2Mjg0MzBfZmxvd2NoYXJ0LXYyLXBvaW50RW5kKSIgc3R5bGU9IiIgY2xhc3M9ImVkZ2UtdGhpY2tuZXNzLW5vcm1hbCBlZGdlLXBhdHRlcm4tc29saWQgZWRnZS10aGlja25lc3Mtbm9ybWFsIGVkZ2UtcGF0dGVybi1zb2xpZCBmbG93Y2hhcnQtbGluayIgaWQ9IkxfT19QXzE1IiBkPSJNMjA1Ny4wMjEsMTIwNkwyMDY5LjYxMywxMjEwLjE2N0MyMDgyLjIwNSwxMjE0LjMzMywyMTA3LjM4OCwxMjIyLjY2NywyMTE5Ljk4LDEyMzAuMzMzQzIxMzIuNTcyLDEyMzgsMjEzMi41NzIsMTI0NSwyMTMyLjU3MiwxMjQ4LjVMMjEzMi41NzIsMTI1MiI+PC9wYXRoPjxwYXRoIG1hcmtlci1lbmQ9InVybCgjZ2VNZXJtYWlkT3V0cHV0LTE3NDUwNzM2Mjg0MzBfZmxvd2NoYXJ0LXYyLXBvaW50RW5kKSIgc3R5bGU9IiIgY2xhc3M9ImVkZ2UtdGhpY2tuZXNzLW5vcm1hbCBlZGdlLXBhdHRlcm4tc29saWQgZWRnZS10aGlja25lc3Mtbm9ybWFsIGVkZ2UtcGF0dGVybi1zb2xpZCBmbG93Y2hhcnQtbGluayIgaWQ9IkxfUF9RXzE2IiBkPSJNMjEzMi41NzIsMTMzNEwyMTMyLjU3MiwxMzM4LjE2N0MyMTMyLjU3MiwxMzQyLjMzMywyMTMyLjU3MiwxMzUwLjY2NywyMTMyLjU3MiwxMzU4LjMzM0MyMTMyLjU3MiwxMzY2LDIxMzIuNTcyLDEzNzMsMjEzMi41NzIsMTM3Ni41TDIxMzIuNTcyLDEzODAiPjwvcGF0aD48cGF0aCBtYXJrZXItZW5kPSJ1cmwoI2dlTWVybWFpZE91dHB1dC0xNzQ1MDczNjI4NDMwX2Zsb3djaGFydC12Mi1wb2ludEVuZCkiIHN0eWxlPSIiIGNsYXNzPSJlZGdlLXRoaWNrbmVzcy1ub3JtYWwgZWRnZS1wYXR0ZXJuLXNvbGlkIGVkZ2UtdGhpY2tuZXNzLW5vcm1hbCBlZGdlLXBhdHRlcm4tc29saWQgZmxvd2NoYXJ0LWxpbmsiIGlkPSJMX1FfUl8xNyIgZD0iTTIyODIuNzcyLDE0MzkuNDQ4TDIzNTUuMTQ1LDE0NDcuMzczQzI0MjcuNTE4LDE0NTUuMjk5LDI1NzIuMjY0LDE0NzEuMTQ5LDI2NDQuNjM2LDE0ODMuMjQxQzI3MTcuMDA5LDE0OTUuMzMzLDI3MTcuMDA5LDE1MDMuNjY3LDI3MTcuMDA5LDE1MTEuMzMzQzI3MTcuMDA5LDE1MTksMjcxNy4wMDksMTUyNiwyNzE3LjAwOSwxNTI5LjVMMjcxNy4wMDksMTUzMyI+PC9wYXRoPjxwYXRoIG1hcmtlci1lbmQ9InVybCgjZ2VNZXJtYWlkT3V0cHV0LTE3NDUwNzM2Mjg0MzBfZmxvd2NoYXJ0LXYyLXBvaW50RW5kKSIgc3R5bGU9IiIgY2xhc3M9ImVkZ2UtdGhpY2tuZXNzLW5vcm1hbCBlZGdlLXBhdHRlcm4tc29saWQgZWRnZS10aGlja25lc3Mtbm9ybWFsIGVkZ2UtcGF0dGVybi1zb2xpZCBmbG93Y2hhcnQtbGluayIgaWQ9IkxfUl9TXzE4IiBkPSJNMjcxNy4wMDksMTYxNUwyNzE3LjAwOSwxNjE5LjE2N0MyNzE3LjAwOSwxNjIzLjMzMywyNzE3LjAwOSwxNjMxLjY2NywyNzE3LjAwOSwxNjQwQzI3MTcuMDA5LDE2NDguMzMzLDI3MTcuMDA5LDE2NTYuNjY3LDI3MTcuMDA5LDE2NjVDMjcxNy4wMDksMTY3My4zMzMsMjcxNy4wMDksMTY4MS42NjcsMjcxNy4wMDksMTY4OS4zMzNDMjcxNy4wMDksMTY5NywyNzE3LjAwOSwxNzA0LDI3MTcuMDA5LDE3MDcuNUwyNzE3LjAwOSwxNzExIj48L3BhdGg+PHBhdGggbWFya2VyLWVuZD0idXJsKCNnZU1lcm1haWRPdXRwdXQtMTc0NTA3MzYyODQzMF9mbG93Y2hhcnQtdjItcG9pbnRFbmQpIiBzdHlsZT0iIiBjbGFzcz0iZWRnZS10aGlja25lc3Mtbm9ybWFsIGVkZ2UtcGF0dGVybi1zb2xpZCBlZGdlLXRoaWNrbmVzcy1ub3JtYWwgZWRnZS1wYXR0ZXJuLXNvbGlkIGZsb3djaGFydC1saW5rIiBpZD0iTF9TX1RfMTkiIGQ9Ik0yNzE3LjAwOSwxNzkzTDI3MTcuMDA5LDE3OTcuMTY3QzI3MTcuMDA5LDE4MDEuMzMzLDI3MTcuMDA5LDE4MDkuNjY3LDI3MTcuMDA5LDE4MThDMjcxNy4wMDksMTgyNi4zMzMsMjcxNy4wMDksMTgzNC42NjcsMjcxNy4wMDksMTg0M0MyNzE3LjAwOSwxODUxLjMzMywyNzE3LjAwOSwxODU5LjY2NywyNzE3LjAwOSwxODY3LjMzM0MyNzE3LjAwOSwxODc1LDI3MTcuMDA5LDE4ODIsMjcxNy4wMDksMTg4NS41TDI3MTcuMDA5LDE4ODkiPjwvcGF0aD48cGF0aCBtYXJrZXItZW5kPSJ1cmwoI2dlTWVybWFpZE91dHB1dC0xNzQ1MDczNjI4NDMwX2Zsb3djaGFydC12Mi1wb2ludEVuZCkiIHN0eWxlPSIiIGNsYXNzPSJlZGdlLXRoaWNrbmVzcy1ub3JtYWwgZWRnZS1wYXR0ZXJuLXNvbGlkIGVkZ2UtdGhpY2tuZXNzLW5vcm1hbCBlZGdlLXBhdHRlcm4tc29saWQgZmxvd2NoYXJ0LWxpbmsiIGlkPSJMX0VfTENfMjAiIGQ9Ik00NzAuNTY4LDY1OEw0NjkuNzU3LDY2NC4xNjdDNDY4Ljk0Niw2NzAuMzMzLDQ2Ny4zMjMsNjgyLjY2Nyw0NjYuNTExLDY5OS41QzQ2NS43LDcxNi4zMzMsNDY1LjcsNzM3LjY2Nyw0NjUuNyw3NTlDNDY1LjcsNzgwLjMzMyw0NjUuNyw4MDEuNjY3LDQ2NS43LDgyNUM0NjUuNyw4NDguMzMzLDQ2NS43LDg3My42NjcsNDY1LjcsODk5QzQ2NS43LDkyNC4zMzMsNDY1LjcsOTQ5LjY2Nyw0NjUuNyw5NzNDNDY1LjcsOTk2LjMzMyw0NjUuNywxMDE3LjY2Nyw0NjUuNywxMDM5QzQ2NS43LDEwNjAuMzMzLDQ2NS43LDEwODEuNjY3LDQ2NS43LDExMDNDNDY1LjcsMTEyNC4zMzMsNDY1LjcsMTE0NS42NjcsNDY1LjcsMTE2N0M0NjUuNywxMTg4LjMzMyw0NjUuNywxMjA5LjY2Nyw0NjUuNywxMjMxQzQ2NS43LDEyNTIuMzMzLDQ2NS43LDEyNzMuNjY3LDQ2NS43LDEyOTVDNDY1LjcsMTMxNi4zMzMsNDY1LjcsMTMzNy42NjcsNDY1LjcsMTM1OUM0NjUuNywxMzgwLjMzMyw0NjUuNywxNDAxLjY2Nyw0NjUuNywxNDIzQzQ2NS43LDE0NDQuMzMzLDQ2NS43LDE0NjUuNjY3LDQ2NS43LDE0ODAuNUM0NjUuNywxNDk1LjMzMyw0NjUuNywxNTAzLjY2Nyw0NjUuNywxNTExLjMzM0M0NjUuNywxNTE5LDQ2NS43LDE1MjYsNDY1LjcsMTUyOS41TDQ2NS43LDE1MzMiPjwvcGF0aD48cGF0aCBtYXJrZXItZW5kPSJ1cmwoI2dlTWVybWFpZE91dHB1dC0xNzQ1MDczNjI4NDMwX2Zsb3djaGFydC12Mi1wb2ludEVuZCkiIHN0eWxlPSIiIGNsYXNzPSJlZGdlLXRoaWNrbmVzcy1ub3JtYWwgZWRnZS1wYXR0ZXJuLXNvbGlkIGVkZ2UtdGhpY2tuZXNzLW5vcm1hbCBlZGdlLXBhdHRlcm4tc29saWQgZmxvd2NoYXJ0LWxpbmsiIGlkPSJMX0xDX0xTXzIxIiBkPSJNNDY1LjcsMTYxNUw0NjUuNywxNjE5LjE2N0M0NjUuNywxNjIzLjMzMyw0NjUuNywxNjMxLjY2Nyw0NjUuNywxNjQwQzQ2NS43LDE2NDguMzMzLDQ2NS43LDE2NTYuNjY3LDQ2NS43LDE2NjVDNDY1LjcsMTY3My4zMzMsNDY1LjcsMTY4MS42NjcsNDY1LjcsMTY4OS4zMzNDNDY1LjcsMTY5Nyw0NjUuNywxNzA0LDQ2NS43LDE3MDcuNUw0NjUuNywxNzExIj48L3BhdGg+PHBhdGggbWFya2VyLWVuZD0idXJsKCNnZU1lcm1haWRPdXRwdXQtMTc0NTA3MzYyODQzMF9mbG93Y2hhcnQtdjItcG9pbnRFbmQpIiBzdHlsZT0iIiBjbGFzcz0iZWRnZS10aGlja25lc3Mtbm9ybWFsIGVkZ2UtcGF0dGVybi1zb2xpZCBlZGdlLXRoaWNrbmVzcy1ub3JtYWwgZWRnZS1wYXR0ZXJuLXNvbGlkIGZsb3djaGFydC1saW5rIiBpZD0iTF9LX1BDQ18yMiIgZD0iTTE3NTcuOTgxLDEwNTUuNzkzTDE2OTcuMDczLDEwNjMuNjYxQzE2MzYuMTY2LDEwNzEuNTI5LDE1MTQuMzUsMTA4Ny4yNjQsMTQ1My40NDIsMTEwNS43OTlDMTM5Mi41MzQsMTEyNC4zMzMsMTM5Mi41MzQsMTE0NS42NjcsMTM5Mi41MzQsMTE2N0MxMzkyLjUzNCwxMTg4LjMzMywxMzkyLjUzNCwxMjA5LjY2NywxMzkyLjUzNCwxMjMxQzEzOTIuNTM0LDEyNTIuMzMzLDEzOTIuNTM0LDEyNzMuNjY3LDEzOTIuNTM0LDEyOTVDMTM5Mi41MzQsMTMxNi4zMzMsMTM5Mi41MzQsMTMzNy42NjcsMTM5Mi41MzQsMTM1OUMxMzkyLjUzNCwxMzgwLjMzMywxMzkyLjUzNCwxNDAxLjY2NywxMzkyLjUzNCwxNDIzQzEzOTIuNTM0LDE0NDQuMzMzLDEzOTIuNTM0LDE0NjUuNjY3LDEzOTIuNTM0LDE0ODAuNUMxMzkyLjUzNCwxNDk1LjMzMywxMzkyLjUzNCwxNTAzLjY2NywxMzkyLjUzNCwxNTExLjMzM0MxMzkyLjUzNCwxNTE5LDEzOTIuNTM0LDE1MjYsMTM5Mi41MzQsMTUyOS41TDEzOTIuNTM0LDE1MzMiPjwvcGF0aD48cGF0aCBtYXJrZXItZW5kPSJ1cmwoI2dlTWVybWFpZE91dHB1dC0xNzQ1MDczNjI4NDMwX2Zsb3djaGFydC12Mi1wb2ludEVuZCkiIHN0eWxlPSIiIGNsYXNzPSJlZGdlLXRoaWNrbmVzcy1ub3JtYWwgZWRnZS1wYXR0ZXJuLXNvbGlkIGVkZ2UtdGhpY2tuZXNzLW5vcm1hbCBlZGdlLXBhdHRlcm4tc29saWQgZmxvd2NoYXJ0LWxpbmsiIGlkPSJMX1BDQ19QU18yMyIgZD0iTTEzOTIuNTM0LDE2MTVMMTM5Mi41MzQsMTYxOS4xNjdDMTM5Mi41MzQsMTYyMy4zMzMsMTM5Mi41MzQsMTYzMS42NjcsMTM5Mi41MzQsMTY0MEMxMzkyLjUzNCwxNjQ4LjMzMywxMzkyLjUzNCwxNjU2LjY2NywxMzkyLjUzNCwxNjY1QzEzOTIuNTM0LDE2NzMuMzMzLDEzOTIuNTM0LDE2ODEuNjY3LDEzOTIuNTM0LDE2ODkuMzMzQzEzOTIuNTM0LDE2OTcsMTM5Mi41MzQsMTcwNCwxMzkyLjUzNCwxNzA3LjVMMTM5Mi41MzQsMTcxMSI+PC9wYXRoPjxwYXRoIG1hcmtlci1lbmQ9InVybCgjZ2VNZXJtYWlkT3V0cHV0LTE3NDUwNzM2Mjg0MzBfZmxvd2NoYXJ0LXYyLXBvaW50RW5kKSIgc3R5bGU9IiIgY2xhc3M9ImVkZ2UtdGhpY2tuZXNzLW5vcm1hbCBlZGdlLXBhdHRlcm4tc29saWQgZWRnZS10aGlja25lc3Mtbm9ybWFsIGVkZ2UtcGF0dGVybi1zb2xpZCBmbG93Y2hhcnQtbGluayIgaWQ9IkxfT19JQ0NfMjQiIGQ9Ik0xODIxLjMwNCwxMjA2TDE4MDguNzEyLDEyMTAuMTY3QzE3OTYuMTIsMTIxNC4zMzMsMTc3MC45MzcsMTIyMi42NjcsMTc1OC4zNDUsMTIzNy41QzE3NDUuNzUzLDEyNTIuMzMzLDE3NDUuNzUzLDEyNzMuNjY3LDE3NDUuNzUzLDEyOTVDMTc0NS43NTMsMTMxNi4zMzMsMTc0NS43NTMsMTMzNy42NjcsMTc0NS43NTMsMTM1OUMxNzQ1Ljc1MywxMzgwLjMzMywxNzQ1Ljc1MywxNDAxLjY2NywxNzQ1Ljc1MywxNDIzQzE3NDUuNzUzLDE0NDQuMzMzLDE3NDUuNzUzLDE0NjUuNjY3LDE3NDUuNzUzLDE0ODAuNUMxNzQ1Ljc1MywxNDk1LjMzMywxNzQ1Ljc1MywxNTAzLjY2NywxNzQ1Ljc1MywxNTExLjMzM0MxNzQ1Ljc1MywxNTE5LDE3NDUuNzUzLDE1MjYsMTc0NS43NTMsMTUyOS41TDE3NDUuNzUzLDE1MzMiPjwvcGF0aD48cGF0aCBtYXJrZXItZW5kPSJ1cmwoI2dlTWVybWFpZE91dHB1dC0xNzQ1MDczNjI4NDMwX2Zsb3djaGFydC12Mi1wb2ludEVuZCkiIHN0eWxlPSIiIGNsYXNzPSJlZGdlLXRoaWNrbmVzcy1ub3JtYWwgZWRnZS1wYXR0ZXJuLXNvbGlkIGVkZ2UtdGhpY2tuZXNzLW5vcm1hbCBlZGdlLXBhdHRlcm4tc29saWQgZmxvd2NoYXJ0LWxpbmsiIGlkPSJMX0lDQ19JU18yNSIgZD0iTTE3NDUuNzUzLDE2MTVMMTc0NS43NTMsMTYxOS4xNjdDMTc0NS43NTMsMTYyMy4zMzMsMTc0NS43NTMsMTYzMS42NjcsMTc0NS43NTMsMTY0MEMxNzQ1Ljc1MywxNjQ4LjMzMywxNzQ1Ljc1MywxNjU2LjY2NywxNzQ1Ljc1MywxNjY1QzE3NDUuNzUzLDE2NzMuMzMzLDE3NDUuNzUzLDE2ODEuNjY3LDE3NTcuNzEyLDE2ODkuNzkxQzE3NjkuNjcxLDE2OTcuOTE0LDE3OTMuNTg4LDE3MDUuODI5LDE4MDUuNTQ3LDE3MDkuNzg2TDE4MTcuNTA2LDE3MTMuNzQzIj48L3BhdGg+PHBhdGggbWFya2VyLWVuZD0idXJsKCNnZU1lcm1haWRPdXRwdXQtMTc0NTA3MzYyODQzMF9mbG93Y2hhcnQtdjItcG9pbnRFbmQpIiBzdHlsZT0iIiBjbGFzcz0iZWRnZS10aGlja25lc3Mtbm9ybWFsIGVkZ2UtcGF0dGVybi1zb2xpZCBlZGdlLXRoaWNrbmVzcy1ub3JtYWwgZWRnZS1wYXR0ZXJuLXNvbGlkIGZsb3djaGFydC1saW5rIiBpZD0iTF9RX0NEQ18yNiIgZD0iTTIxMzIuNTcyLDE0NjJMMjEzMi41NzIsMTQ2Ni4xNjdDMjEzMi41NzIsMTQ3MC4zMzMsMjEzMi41NzIsMTQ3OC42NjcsMjEzMi41NzIsMTQ4N0MyMTMyLjU3MiwxNDk1LjMzMywyMTMyLjU3MiwxNTAzLjY2NywyMTMyLjU3MiwxNTExLjMzM0MyMTMyLjU3MiwxNTE5LDIxMzIuNTcyLDE1MjYsMjEzMi41NzIsMTUyOS41TDIxMzIuNTcyLDE1MzMiPjwvcGF0aD48cGF0aCBtYXJrZXItZW5kPSJ1cmwoI2dlTWVybWFpZE91dHB1dC0xNzQ1MDczNjI4NDMwX2Zsb3djaGFydC12Mi1wb2ludEVuZCkiIHN0eWxlPSIiIGNsYXNzPSJlZGdlLXRoaWNrbmVzcy1ub3JtYWwgZWRnZS1wYXR0ZXJuLXNvbGlkIGVkZ2UtdGhpY2tuZXNzLW5vcm1hbCBlZGdlLXBhdHRlcm4tc29saWQgZmxvd2NoYXJ0LWxpbmsiIGlkPSJMX0NEQ19JU18yNyIgZD0iTTIxMzIuNTcyLDE2MTVMMjEzMi41NzIsMTYxOS4xNjdDMjEzMi41NzIsMTYyMy4zMzMsMjEzMi41NzIsMTYzMS42NjcsMjEzMi41NzIsMTY0MEMyMTMyLjU3MiwxNjQ4LjMzMywyMTMyLjU3MiwxNjU2LjY2NywyMTMyLjU3MiwxNjY1QzIxMzIuNTcyLDE2NzMuMzMzLDIxMzIuNTcyLDE2ODEuNjY3LDIxMjAuNjEzLDE2ODkuNzkxQzIxMDguNjU0LDE2OTcuOTE0LDIwODQuNzM2LDE3MDUuODI5LDIwNzIuNzc4LDE3MDkuNzg2TDIwNjAuODE5LDE3MTMuNzQzIj48L3BhdGg+PHBhdGggbWFya2VyLWVuZD0idXJsKCNnZU1lcm1haWRPdXRwdXQtMTc0NTA3MzYyODQzMF9mbG93Y2hhcnQtdjItcG9pbnRFbmQpIiBzdHlsZT0iIiBjbGFzcz0iZWRnZS10aGlja25lc3Mtbm9ybWFsIGVkZ2UtcGF0dGVybi1zb2xpZCBlZGdlLXRoaWNrbmVzcy1ub3JtYWwgZWRnZS1wYXR0ZXJuLXNvbGlkIGZsb3djaGFydC1saW5rIiBpZD0iTF9MU19MUmVzXzI4IiBkPSJNNDY1LjcsMTc5M0w0NjUuNywxNzk3LjE2N0M0NjUuNywxODAxLjMzMyw0NjUuNywxODA5LjY2Nyw0NjUuNywxODE4QzQ2NS43LDE4MjYuMzMzLDQ2NS43LDE4MzQuNjY3LDQ2NS43LDE4NDNDNDY1LjcsMTg1MS4zMzMsNDY1LjcsMTg1OS42NjcsNDY1LjcsMTg2OS4zMzNDNDY1LjcsMTg3OSw0NjUuNywxODkwLDQ2NS43LDE4OTUuNUw0NjUuNywxOTAxIj48L3BhdGg+PHBhdGggbWFya2VyLWVuZD0idXJsKCNnZU1lcm1haWRPdXRwdXQtMTc0NTA3MzYyODQzMF9mbG93Y2hhcnQtdjItcG9pbnRFbmQpIiBzdHlsZT0iIiBjbGFzcz0iZWRnZS10aGlja25lc3Mtbm9ybWFsIGVkZ2UtcGF0dGVybi1zb2xpZCBlZGdlLXRoaWNrbmVzcy1ub3JtYWwgZWRnZS1wYXR0ZXJuLXNvbGlkIGZsb3djaGFydC1saW5rIiBpZD0iTF9QU19Qcm9kXzI5IiBkPSJNMTM5Mi41MzQsMTc5M0wxMzkyLjUzNCwxNzk3LjE2N0MxMzkyLjUzNCwxODAxLjMzMywxMzkyLjUzNCwxODA5LjY2NywxMzkyLjUzNCwxODE4QzEzOTIuNTM0LDE4MjYuMzMzLDEzOTIuNTM0LDE4MzQuNjY3LDEzOTIuNTM0LDE4NDNDMTM5Mi41MzQsMTg1MS4zMzMsMTM5Mi41MzQsMTg1OS42NjcsMTM5Mi41MzQsMTg2OS4zMzNDMTM5Mi41MzQsMTg3OSwxMzkyLjUzNCwxODkwLDEzOTIuNTM0LDE4OTUuNUwxMzkyLjUzNCwxOTAxIj48L3BhdGg+PHBhdGggbWFya2VyLWVuZD0idXJsKCNnZU1lcm1haWRPdXRwdXQtMTc0NTA3MzYyODQzMF9mbG93Y2hhcnQtdjItcG9pbnRFbmQpIiBzdHlsZT0iIiBjbGFzcz0iZWRnZS10aGlja25lc3Mtbm9ybWFsIGVkZ2UtcGF0dGVybi1zb2xpZCBlZGdlLXRoaWNrbmVzcy1ub3JtYWwgZWRnZS1wYXR0ZXJuLXNvbGlkIGZsb3djaGFydC1saW5rIiBpZD0iTF9JU19JbnZfMzAiIGQ9Ik0xOTM5LjE2MiwxNzkzTDE5MzkuMTYyLDE3OTcuMTY3QzE5MzkuMTYyLDE4MDEuMzMzLDE5MzkuMTYyLDE4MDkuNjY3LDE5MzkuMTYyLDE4MThDMTkzOS4xNjIsMTgyNi4zMzMsMTkzOS4xNjIsMTgzNC42NjcsMTkzOS4xNjIsMTg0M0MxOTM5LjE2MiwxODUxLjMzMywxOTM5LjE2MiwxODU5LjY2NywxOTM5LjE2MiwxODY5LjMzM0MxOTM5LjE2MiwxODc5LDE5MzkuMTYyLDE4OTAsMTkzOS4xNjIsMTg5NS41TDE5MzkuMTYyLDE5MDEiPjwvcGF0aD48cGF0aCBtYXJrZXItZW5kPSJ1cmwoI2dlTWVybWFpZE91dHB1dC0xNzQ1MDczNjI4NDMwX2Zsb3djaGFydC12Mi1wb2ludEVuZCkiIHN0eWxlPSIiIGNsYXNzPSJlZGdlLXRoaWNrbmVzcy1ub3JtYWwgZWRnZS1wYXR0ZXJuLXNvbGlkIGVkZ2UtdGhpY2tuZXNzLW5vcm1hbCBlZGdlLXBhdHRlcm4tc29saWQgZmxvd2NoYXJ0LWxpbmsiIGlkPSJMX0dfTmF2XzMxIiBkPSJNMTEwMi4yNjIsNzY0Ljk0M0wxMzEzLjkxLDc3NC42MTlDMTUyNS41NTcsNzg0LjI5NiwxOTQ4Ljg1Miw4MDMuNjQ4LDIxNjAuNDk5LDgyNS45OTFDMjM3Mi4xNDcsODQ4LjMzMywyMzcyLjE0Nyw4NzMuNjY3LDIzNzIuMTQ3LDg5OUMyMzcyLjE0Nyw5MjQuMzMzLDIzNzIuMTQ3LDk0OS42NjcsMjM3Mi4xNDcsOTczQzIzNzIuMTQ3LDk5Ni4zMzMsMjM3Mi4xNDcsMTAxNy42NjcsMjM3Mi4xNDcsMTAzOUMyMzcyLjE0NywxMDYwLjMzMywyMzcyLjE0NywxMDgxLjY2NywyMzcyLjE0NywxMTAzQzIzNzIuMTQ3LDExMjQuMzMzLDIzNzIuMTQ3LDExNDUuNjY3LDIzNzIuMTQ3LDExNjdDMjM3Mi4xNDcsMTE4OC4zMzMsMjM3Mi4xNDcsMTIwOS42NjcsMjM3Mi4xNDcsMTIzMUMyMzcyLjE0NywxMjUyLjMzMywyMzcyLjE0NywxMjczLjY2NywyMzcyLjE0NywxMjk1QzIzNzIuMTQ3LDEzMTYuMzMzLDIzNzIuMTQ3LDEzMzcuNjY3LDIzNzIuMTQ3LDEzNTlDMjM3Mi4xNDcsMTM4MC4zMzMsMjM3Mi4xNDcsMTQwMS42NjcsMjM3Mi4xNDcsMTQyM0MyMzcyLjE0NywxNDQ0LjMzMywyMzcyLjE0NywxNDY1LjY2NywyMzcyLjE0NywxNDgwLjVDMjM3Mi4xNDcsMTQ5NS4zMzMsMjM3Mi4xNDcsMTUwMy42NjcsMjM3Mi4xNDcsMTUxOC41QzIzNzIuMTQ3LDE1MzMuMzMzLDIzNzIuMTQ3LDE1NTQuNjY3LDIzNzIuMTQ3LDE1NzZDMjM3Mi4xNDcsMTU5Ny4zMzMsMjM3Mi4xNDcsMTYxOC42NjcsMjM3Mi4xNDcsMTYzMy41QzIzNzIuMTQ3LDE2NDguMzMzLDIzNzIuMTQ3LDE2NTYuNjY3LDIzNzIuMTQ3LDE2NjVDMjM3Mi4xNDcsMTY3My4zMzMsMjM3Mi4xNDcsMTY4MS42NjcsMjM3Mi4xNDcsMTY5Ni41QzIzNzIuMTQ3LDE3MTEuMzMzLDIzNzIuMTQ3LDE3MzIuNjY3LDIzNzIuMTQ3LDE3NTRDMjM3Mi4xNDcsMTc3NS4zMzMsMjM3Mi4xNDcsMTc5Ni42NjcsMjM3Mi4xNDcsMTgxMS41QzIzNzIuMTQ3LDE4MjYuMzMzLDIzNzIuMTQ3LDE4MzQuNjY3LDIzNzIuMTQ3LDE4NDNDMjM3Mi4xNDcsMTg1MS4zMzMsMjM3Mi4xNDcsMTg1OS42NjcsMjM3Mi4xNDcsMTg2OS4zMzNDMjM3Mi4xNDcsMTg3OSwyMzcyLjE0NywxODkwLDIzNzIuMTQ3LDE4OTUuNUwyMzcyLjE0NywxOTAxIj48L3BhdGg+PC9nPjxnIGNsYXNzPSJlZGdlTGFiZWxzIj48Zz48cmVjdCBzdHlsZT0ic3Ryb2tlOiBub25lIiBjbGFzcz0iYmFja2dyb3VuZCI+PC9yZWN0PjwvZz48Zz48cmVjdCBzdHlsZT0ic3Ryb2tlOiBub25lIiBjbGFzcz0iYmFja2dyb3VuZCI+PC9yZWN0PjwvZz48Zz48cmVjdCBzdHlsZT0ic3Ryb2tlOiBub25lIiBjbGFzcz0iYmFja2dyb3VuZCI+PC9yZWN0PjwvZz48Zz48cmVjdCBzdHlsZT0ic3Ryb2tlOiBub25lIiBjbGFzcz0iYmFja2dyb3VuZCI+PC9yZWN0PjwvZz48Zz48cmVjdCBzdHlsZT0ic3Ryb2tlOiBub25lIiBjbGFzcz0iYmFja2dyb3VuZCI+PC9yZWN0PjwvZz48Zz48cmVjdCBzdHlsZT0ic3Ryb2tlOiBub25lIiBjbGFzcz0iYmFja2dyb3VuZCI+PC9yZWN0PjwvZz48Zz48cmVjdCBzdHlsZT0ic3Ryb2tlOiBub25lIiBjbGFzcz0iYmFja2dyb3VuZCI+PC9yZWN0PjwvZz48Zz48cmVjdCBzdHlsZT0ic3Ryb2tlOiBub25lIiBjbGFzcz0iYmFja2dyb3VuZCI+PC9yZWN0PjwvZz48Zz48cmVjdCBzdHlsZT0ic3Ryb2tlOiBub25lIiBjbGFzcz0iYmFja2dyb3VuZCI+PC9yZWN0PjwvZz48Zz48cmVjdCBzdHlsZT0ic3Ryb2tlOiBub25lIiBjbGFzcz0iYmFja2dyb3VuZCI+PC9yZWN0PjwvZz48Zz48cmVjdCBzdHlsZT0ic3Ryb2tlOiBub25lIiBjbGFzcz0iYmFja2dyb3VuZCI+PC9yZWN0PjwvZz48Zz48cmVjdCBzdHlsZT0ic3Ryb2tlOiBub25lIiBjbGFzcz0iYmFja2dyb3VuZCI+PC9yZWN0PjwvZz48Zz48cmVjdCBzdHlsZT0ic3Ryb2tlOiBub25lIiBjbGFzcz0iYmFja2dyb3VuZCI+PC9yZWN0PjwvZz48Zz48cmVjdCBzdHlsZT0ic3Ryb2tlOiBub25lIiBjbGFzcz0iYmFja2dyb3VuZCI+PC9yZWN0PjwvZz48Zz48cmVjdCBzdHlsZT0ic3Ryb2tlOiBub25lIiBjbGFzcz0iYmFja2dyb3VuZCI+PC9yZWN0PjwvZz48Zz48cmVjdCBzdHlsZT0ic3Ryb2tlOiBub25lIiBjbGFzcz0iYmFja2dyb3VuZCI+PC9yZWN0PjwvZz48Zz48cmVjdCBzdHlsZT0ic3Ryb2tlOiBub25lIiBjbGFzcz0iYmFja2dyb3VuZCI+PC9yZWN0PjwvZz48Zz48cmVjdCBzdHlsZT0ic3Ryb2tlOiBub25lIiBjbGFzcz0iYmFja2dyb3VuZCI+PC9yZWN0PjwvZz48Zz48cmVjdCBzdHlsZT0ic3Ryb2tlOiBub25lIiBjbGFzcz0iYmFja2dyb3VuZCI+PC9yZWN0PjwvZz48Zz48cmVjdCBzdHlsZT0ic3Ryb2tlOiBub25lIiBjbGFzcz0iYmFja2dyb3VuZCI+PC9yZWN0PjwvZz48Zz48cmVjdCBzdHlsZT0ic3Ryb2tlOiBub25lIiBjbGFzcz0iYmFja2dyb3VuZCI+PC9yZWN0PjwvZz48Zz48cmVjdCBzdHlsZT0ic3Ryb2tlOiBub25lIiBjbGFzcz0iYmFja2dyb3VuZCI+PC9yZWN0PjwvZz48Zz48cmVjdCBzdHlsZT0ic3Ryb2tlOiBub25lIiBjbGFzcz0iYmFja2dyb3VuZCI+PC9yZWN0PjwvZz48Zz48cmVjdCBzdHlsZT0ic3Ryb2tlOiBub25lIiBjbGFzcz0iYmFja2dyb3VuZCI+PC9yZWN0PjwvZz48Zz48cmVjdCBzdHlsZT0ic3Ryb2tlOiBub25lIiBjbGFzcz0iYmFja2dyb3VuZCI+PC9yZWN0PjwvZz48Zz48cmVjdCBzdHlsZT0ic3Ryb2tlOiBub25lIiBjbGFzcz0iYmFja2dyb3VuZCI+PC9yZWN0PjwvZz48Zz48cmVjdCBzdHlsZT0ic3Ryb2tlOiBub25lIiBjbGFzcz0iYmFja2dyb3VuZCI+PC9yZWN0PjwvZz48Zz48cmVjdCBzdHlsZT0ic3Ryb2tlOiBub25lIiBjbGFzcz0iYmFja2dyb3VuZCI+PC9yZWN0PjwvZz48Zz48cmVjdCBzdHlsZT0ic3Ryb2tlOiBub25lIiBjbGFzcz0iYmFja2dyb3VuZCI+PC9yZWN0PjwvZz48Zz48cmVjdCBzdHlsZT0ic3Ryb2tlOiBub25lIiBjbGFzcz0iYmFja2dyb3VuZCI+PC9yZWN0PjwvZz48Zz48cmVjdCBzdHlsZT0ic3Ryb2tlOiBub25lIiBjbGFzcz0iYmFja2dyb3VuZCI+PC9yZWN0PjwvZz48Zz48cmVjdCBzdHlsZT0ic3Ryb2tlOiBub25lIiBjbGFzcz0iYmFja2dyb3VuZCI+PC9yZWN0PjwvZz48ZyBjbGFzcz0iZWRnZUxhYmVsIj48ZyB0cmFuc2Zvcm09InRyYW5zbGF0ZSgwLCAwKSIgY2xhc3M9ImxhYmVsIj48dGV4dCB5PSItMTAuMSI+PHRzcGFuIGR5PSIxLjFlbSIgeT0iLTAuMWVtIiB4PSIwIiBjbGFzcz0idGV4dC1vdXRlci10c3BhbiI+PC90c3Bhbj48L3RleHQ+PC9nPjwvZz48ZyBjbGFzcz0iZWRnZUxhYmVsIj48ZyB0cmFuc2Zvcm09InRyYW5zbGF0ZSgwLCAwKSIgY2xhc3M9ImxhYmVsIj48dGV4dCB5PSItMTAuMSI+PHRzcGFuIGR5PSIxLjFlbSIgeT0iLTAuMWVtIiB4PSIwIiBjbGFzcz0idGV4dC1vdXRlci10c3BhbiI+PC90c3Bhbj48L3RleHQ+PC9nPjwvZz48ZyBjbGFzcz0iZWRnZUxhYmVsIj48ZyB0cmFuc2Zvcm09InRyYW5zbGF0ZSgwLCAwKSIgY2xhc3M9ImxhYmVsIj48dGV4dCB5PSItMTAuMSI+PHRzcGFuIGR5PSIxLjFlbSIgeT0iLTAuMWVtIiB4PSIwIiBjbGFzcz0idGV4dC1vdXRlci10c3BhbiI+PC90c3Bhbj48L3RleHQ+PC9nPjwvZz48ZyBjbGFzcz0iZWRnZUxhYmVsIj48ZyB0cmFuc2Zvcm09InRyYW5zbGF0ZSgwLCAwKSIgY2xhc3M9ImxhYmVsIj48dGV4dCB5PSItMTAuMSI+PHRzcGFuIGR5PSIxLjFlbSIgeT0iLTAuMWVtIiB4PSIwIiBjbGFzcz0idGV4dC1vdXRlci10c3BhbiI+PC90c3Bhbj48L3RleHQ+PC9nPjwvZz48ZyBjbGFzcz0iZWRnZUxhYmVsIj48ZyB0cmFuc2Zvcm09InRyYW5zbGF0ZSgwLCAwKSIgY2xhc3M9ImxhYmVsIj48dGV4dCB5PSItMTAuMSI+PHRzcGFuIGR5PSIxLjFlbSIgeT0iLTAuMWVtIiB4PSIwIiBjbGFzcz0idGV4dC1vdXRlci10c3BhbiI+PC90c3Bhbj48L3RleHQ+PC9nPjwvZz48ZyBjbGFzcz0iZWRnZUxhYmVsIj48ZyB0cmFuc2Zvcm09InRyYW5zbGF0ZSgwLCAwKSIgY2xhc3M9ImxhYmVsIj48dGV4dCB5PSItMTAuMSI+PHRzcGFuIGR5PSIxLjFlbSIgeT0iLTAuMWVtIiB4PSIwIiBjbGFzcz0idGV4dC1vdXRlci10c3BhbiI+PC90c3Bhbj48L3RleHQ+PC9nPjwvZz48ZyBjbGFzcz0iZWRnZUxhYmVsIj48ZyB0cmFuc2Zvcm09InRyYW5zbGF0ZSgwLCAwKSIgY2xhc3M9ImxhYmVsIj48dGV4dCB5PSItMTAuMSI+PHRzcGFuIGR5PSIxLjFlbSIgeT0iLTAuMWVtIiB4PSIwIiBjbGFzcz0idGV4dC1vdXRlci10c3BhbiI+PC90c3Bhbj48L3RleHQ+PC9nPjwvZz48ZyBjbGFzcz0iZWRnZUxhYmVsIj48ZyB0cmFuc2Zvcm09InRyYW5zbGF0ZSgwLCAwKSIgY2xhc3M9ImxhYmVsIj48dGV4dCB5PSItMTAuMSI+PHRzcGFuIGR5PSIxLjFlbSIgeT0iLTAuMWVtIiB4PSIwIiBjbGFzcz0idGV4dC1vdXRlci10c3BhbiI+PC90c3Bhbj48L3RleHQ+PC9nPjwvZz48ZyBjbGFzcz0iZWRnZUxhYmVsIj48ZyB0cmFuc2Zvcm09InRyYW5zbGF0ZSgwLCAwKSIgY2xhc3M9ImxhYmVsIj48dGV4dCB5PSItMTAuMSI+PHRzcGFuIGR5PSIxLjFlbSIgeT0iLTAuMWVtIiB4PSIwIiBjbGFzcz0idGV4dC1vdXRlci10c3BhbiI+PC90c3Bhbj48L3RleHQ+PC9nPjwvZz48ZyBjbGFzcz0iZWRnZUxhYmVsIj48ZyB0cmFuc2Zvcm09InRyYW5zbGF0ZSgwLCAwKSIgY2xhc3M9ImxhYmVsIj48dGV4dCB5PSItMTAuMSI+PHRzcGFuIGR5PSIxLjFlbSIgeT0iLTAuMWVtIiB4PSIwIiBjbGFzcz0idGV4dC1vdXRlci10c3BhbiI+PC90c3Bhbj48L3RleHQ+PC9nPjwvZz48ZyBjbGFzcz0iZWRnZUxhYmVsIj48ZyB0cmFuc2Zvcm09InRyYW5zbGF0ZSgwLCAwKSIgY2xhc3M9ImxhYmVsIj48dGV4dCB5PSItMTAuMSI+PHRzcGFuIGR5PSIxLjFlbSIgeT0iLTAuMWVtIiB4PSIwIiBjbGFzcz0idGV4dC1vdXRlci10c3BhbiI+PC90c3Bhbj48L3RleHQ+PC9nPjwvZz48ZyBjbGFzcz0iZWRnZUxhYmVsIj48ZyB0cmFuc2Zvcm09InRyYW5zbGF0ZSgwLCAwKSIgY2xhc3M9ImxhYmVsIj48dGV4dCB5PSItMTAuMSI+PHRzcGFuIGR5PSIxLjFlbSIgeT0iLTAuMWVtIiB4PSIwIiBjbGFzcz0idGV4dC1vdXRlci10c3BhbiI+PC90c3Bhbj48L3RleHQ+PC9nPjwvZz48ZyBjbGFzcz0iZWRnZUxhYmVsIj48ZyB0cmFuc2Zvcm09InRyYW5zbGF0ZSgwLCAwKSIgY2xhc3M9ImxhYmVsIj48dGV4dCB5PSItMTAuMSI+PHRzcGFuIGR5PSIxLjFlbSIgeT0iLTAuMWVtIiB4PSIwIiBjbGFzcz0idGV4dC1vdXRlci10c3BhbiI+PC90c3Bhbj48L3RleHQ+PC9nPjwvZz48ZyBjbGFzcz0iZWRnZUxhYmVsIj48ZyB0cmFuc2Zvcm09InRyYW5zbGF0ZSgwLCAwKSIgY2xhc3M9ImxhYmVsIj48dGV4dCB5PSItMTAuMSI+PHRzcGFuIGR5PSIxLjFlbSIgeT0iLTAuMWVtIiB4PSIwIiBjbGFzcz0idGV4dC1vdXRlci10c3BhbiI+PC90c3Bhbj48L3RleHQ+PC9nPjwvZz48ZyBjbGFzcz0iZWRnZUxhYmVsIj48ZyB0cmFuc2Zvcm09InRyYW5zbGF0ZSgwLCAwKSIgY2xhc3M9ImxhYmVsIj48dGV4dCB5PSItMTAuMSI+PHRzcGFuIGR5PSIxLjFlbSIgeT0iLTAuMWVtIiB4PSIwIiBjbGFzcz0idGV4dC1vdXRlci10c3BhbiI+PC90c3Bhbj48L3RleHQ+PC9nPjwvZz48ZyBjbGFzcz0iZWRnZUxhYmVsIj48ZyB0cmFuc2Zvcm09InRyYW5zbGF0ZSgwLCAwKSIgY2xhc3M9ImxhYmVsIj48dGV4dCB5PSItMTAuMSI+PHRzcGFuIGR5PSIxLjFlbSIgeT0iLTAuMWVtIiB4PSIwIiBjbGFzcz0idGV4dC1vdXRlci10c3BhbiI+PC90c3Bhbj48L3RleHQ+PC9nPjwvZz48ZyBjbGFzcz0iZWRnZUxhYmVsIj48ZyB0cmFuc2Zvcm09InRyYW5zbGF0ZSgwLCAwKSIgY2xhc3M9ImxhYmVsIj48dGV4dCB5PSItMTAuMSI+PHRzcGFuIGR5PSIxLjFlbSIgeT0iLTAuMWVtIiB4PSIwIiBjbGFzcz0idGV4dC1vdXRlci10c3BhbiI+PC90c3Bhbj48L3RleHQ+PC9nPjwvZz48ZyBjbGFzcz0iZWRnZUxhYmVsIj48ZyB0cmFuc2Zvcm09InRyYW5zbGF0ZSgwLCAwKSIgY2xhc3M9ImxhYmVsIj48dGV4dCB5PSItMTAuMSI+PHRzcGFuIGR5PSIxLjFlbSIgeT0iLTAuMWVtIiB4PSIwIiBjbGFzcz0idGV4dC1vdXRlci10c3BhbiI+PC90c3Bhbj48L3RleHQ+PC9nPjwvZz48ZyBjbGFzcz0iZWRnZUxhYmVsIj48ZyB0cmFuc2Zvcm09InRyYW5zbGF0ZSgwLCAwKSIgY2xhc3M9ImxhYmVsIj48dGV4dCB5PSItMTAuMSI+PHRzcGFuIGR5PSIxLjFlbSIgeT0iLTAuMWVtIiB4PSIwIiBjbGFzcz0idGV4dC1vdXRlci10c3BhbiI+PC90c3Bhbj48L3RleHQ+PC9nPjwvZz48ZyBjbGFzcz0iZWRnZUxhYmVsIj48ZyB0cmFuc2Zvcm09InRyYW5zbGF0ZSgwLCAwKSIgY2xhc3M9ImxhYmVsIj48dGV4dCB5PSItMTAuMSI+PHRzcGFuIGR5PSIxLjFlbSIgeT0iLTAuMWVtIiB4PSIwIiBjbGFzcz0idGV4dC1vdXRlci10c3BhbiI+PC90c3Bhbj48L3RleHQ+PC9nPjwvZz48ZyBjbGFzcz0iZWRnZUxhYmVsIj48ZyB0cmFuc2Zvcm09InRyYW5zbGF0ZSgwLCAwKSIgY2xhc3M9ImxhYmVsIj48dGV4dCB5PSItMTAuMSI+PHRzcGFuIGR5PSIxLjFlbSIgeT0iLTAuMWVtIiB4PSIwIiBjbGFzcz0idGV4dC1vdXRlci10c3BhbiI+PC90c3Bhbj48L3RleHQ+PC9nPjwvZz48ZyBjbGFzcz0iZWRnZUxhYmVsIj48ZyB0cmFuc2Zvcm09InRyYW5zbGF0ZSgwLCAwKSIgY2xhc3M9ImxhYmVsIj48dGV4dCB5PSItMTAuMSI+PHRzcGFuIGR5PSIxLjFlbSIgeT0iLTAuMWVtIiB4PSIwIiBjbGFzcz0idGV4dC1vdXRlci10c3BhbiI+PC90c3Bhbj48L3RleHQ+PC9nPjwvZz48ZyBjbGFzcz0iZWRnZUxhYmVsIj48ZyB0cmFuc2Zvcm09InRyYW5zbGF0ZSgwLCAwKSIgY2xhc3M9ImxhYmVsIj48dGV4dCB5PSItMTAuMSI+PHRzcGFuIGR5PSIxLjFlbSIgeT0iLTAuMWVtIiB4PSIwIiBjbGFzcz0idGV4dC1vdXRlci10c3BhbiI+PC90c3Bhbj48L3RleHQ+PC9nPjwvZz48ZyBjbGFzcz0iZWRnZUxhYmVsIj48ZyB0cmFuc2Zvcm09InRyYW5zbGF0ZSgwLCAwKSIgY2xhc3M9ImxhYmVsIj48dGV4dCB5PSItMTAuMSI+PHRzcGFuIGR5PSIxLjFlbSIgeT0iLTAuMWVtIiB4PSIwIiBjbGFzcz0idGV4dC1vdXRlci10c3BhbiI+PC90c3Bhbj48L3RleHQ+PC9nPjwvZz48ZyBjbGFzcz0iZWRnZUxhYmVsIj48ZyB0cmFuc2Zvcm09InRyYW5zbGF0ZSgwLCAwKSIgY2xhc3M9ImxhYmVsIj48dGV4dCB5PSItMTAuMSI+PHRzcGFuIGR5PSIxLjFlbSIgeT0iLTAuMWVtIiB4PSIwIiBjbGFzcz0idGV4dC1vdXRlci10c3BhbiI+PC90c3Bhbj48L3RleHQ+PC9nPjwvZz48ZyBjbGFzcz0iZWRnZUxhYmVsIj48ZyB0cmFuc2Zvcm09InRyYW5zbGF0ZSgwLCAwKSIgY2xhc3M9ImxhYmVsIj48dGV4dCB5PSItMTAuMSI+PHRzcGFuIGR5PSIxLjFlbSIgeT0iLTAuMWVtIiB4PSIwIiBjbGFzcz0idGV4dC1vdXRlci10c3BhbiI+PC90c3Bhbj48L3RleHQ+PC9nPjwvZz48ZyBjbGFzcz0iZWRnZUxhYmVsIj48ZyB0cmFuc2Zvcm09InRyYW5zbGF0ZSgwLCAwKSIgY2xhc3M9ImxhYmVsIj48dGV4dCB5PSItMTAuMSI+PHRzcGFuIGR5PSIxLjFlbSIgeT0iLTAuMWVtIiB4PSIwIiBjbGFzcz0idGV4dC1vdXRlci10c3BhbiI+PC90c3Bhbj48L3RleHQ+PC9nPjwvZz48ZyBjbGFzcz0iZWRnZUxhYmVsIj48ZyB0cmFuc2Zvcm09InRyYW5zbGF0ZSgwLCAwKSIgY2xhc3M9ImxhYmVsIj48dGV4dCB5PSItMTAuMSI+PHRzcGFuIGR5PSIxLjFlbSIgeT0iLTAuMWVtIiB4PSIwIiBjbGFzcz0idGV4dC1vdXRlci10c3BhbiI+PC90c3Bhbj48L3RleHQ+PC9nPjwvZz48ZyBjbGFzcz0iZWRnZUxhYmVsIj48ZyB0cmFuc2Zvcm09InRyYW5zbGF0ZSgwLCAwKSIgY2xhc3M9ImxhYmVsIj48dGV4dCB5PSItMTAuMSI+PHRzcGFuIGR5PSIxLjFlbSIgeT0iLTAuMWVtIiB4PSIwIiBjbGFzcz0idGV4dC1vdXRlci10c3BhbiI+PC90c3Bhbj48L3RleHQ+PC9nPjwvZz48ZyBjbGFzcz0iZWRnZUxhYmVsIj48ZyB0cmFuc2Zvcm09InRyYW5zbGF0ZSgwLCAwKSIgY2xhc3M9ImxhYmVsIj48dGV4dCB5PSItMTAuMSI+PHRzcGFuIGR5PSIxLjFlbSIgeT0iLTAuMWVtIiB4PSIwIiBjbGFzcz0idGV4dC1vdXRlci10c3BhbiI+PC90c3Bhbj48L3RleHQ+PC9nPjwvZz48ZyBjbGFzcz0iZWRnZUxhYmVsIj48ZyB0cmFuc2Zvcm09InRyYW5zbGF0ZSgwLCAwKSIgY2xhc3M9ImxhYmVsIj48dGV4dCB5PSItMTAuMSI+PHRzcGFuIGR5PSIxLjFlbSIgeT0iLTAuMWVtIiB4PSIwIiBjbGFzcz0idGV4dC1vdXRlci10c3BhbiI+PC90c3Bhbj48L3RleHQ+PC9nPjwvZz48ZyBjbGFzcz0iZWRnZUxhYmVsIj48ZyB0cmFuc2Zvcm09InRyYW5zbGF0ZSgwLCAwKSIgY2xhc3M9ImxhYmVsIj48dGV4dCB5PSItMTAuMSI+PHRzcGFuIGR5PSIxLjFlbSIgeT0iLTAuMWVtIiB4PSIwIiBjbGFzcz0idGV4dC1vdXRlci10c3BhbiI+PC90c3Bhbj48L3RleHQ+PC9nPjwvZz48L2c+PGcgY2xhc3M9Im5vZGVzIj48ZyB0cmFuc2Zvcm09InRyYW5zbGF0ZSg3MTguOTgxMjM5MzE4ODQ3NywgNTkpIiBpZD0iZmxvd2NoYXJ0LUEtNzMiIGNsYXNzPSJub2RlIGRlZmF1bHQiPjxyZWN0IGhlaWdodD0iMTAyIiB3aWR0aD0iMjYwIiB5PSItNTEiIHg9Ii0xMzAiIHN0eWxlPSIiIGNsYXNzPSJiYXNpYyBsYWJlbC1jb250YWluZXIiPjwvcmVjdD48ZyB0cmFuc2Zvcm09InRyYW5zbGF0ZSgtMTAwLCAtMzYpIiBzdHlsZT0iIiBjbGFzcz0ibGFiZWwiPjxyZWN0PjwvcmVjdD48Zm9yZWlnbk9iamVjdCBoZWlnaHQ9IjcyIiB3aWR0aD0iMjAwIj48ZGl2IHN0eWxlPSJkaXNwbGF5OiB0YWJsZTsgd2hpdGUtc3BhY2U6IGJyZWFrLXNwYWNlczsgbGluZS1oZWlnaHQ6IDEuNTsgbWF4LXdpZHRoOiAyMDBweDsgdGV4dC1hbGlnbjogY2VudGVyOyB3aWR0aDogMjAwcHg7IiB4bWxucz0iaHR0cDovL3d3dy53My5vcmcvMTk5OS94aHRtbCI+PHNwYW4gY2xhc3M9Im5vZGVMYWJlbCI+PHA+bWFpbi5kYXJ0XG5Qb2ludCBk4oCZZW50csOpZSA6IGNvbmZpZ3VyZSBHZXRYLCB0aMOobWVzIGV0IHJvdXRlczwvcD48L3NwYW4+PC9kaXY+PC9mb3JlaWduT2JqZWN0PjwvZz48L2c+PGcgdHJhbnNmb3JtPSJ0cmFuc2xhdGUoNzE4Ljk4MTIzOTMxODg0NzcsIDE5OSkiIGlkPSJmbG93Y2hhcnQtQi03NCIgY2xhc3M9Im5vZGUgZGVmYXVsdCI+PHJlY3QgaGVpZ2h0PSI3OCIgd2lkdGg9IjI2MCIgeT0iLTM5IiB4PSItMTMwIiBzdHlsZT0iIiBjbGFzcz0iYmFzaWMgbGFiZWwtY29udGFpbmVyIj48L3JlY3Q+PGcgdHJhbnNmb3JtPSJ0cmFuc2xhdGUoLTEwMCwgLTI0KSIgc3R5bGU9IiIgY2xhc3M9ImxhYmVsIj48cmVjdD48L3JlY3Q+PGZvcmVpZ25PYmplY3QgaGVpZ2h0PSI0OCIgd2lkdGg9IjIwMCI+PGRpdiBzdHlsZT0iZGlzcGxheTogdGFibGU7IHdoaXRlLXNwYWNlOiBicmVhay1zcGFjZXM7IGxpbmUtaGVpZ2h0OiAxLjU7IG1heC13aWR0aDogMjAwcHg7IHRleHQtYWxpZ246IGNlbnRlcjsgd2lkdGg6IDIwMHB4OyIgeG1sbnM9Imh0dHA6Ly93d3cudzMub3JnLzE5OTkveGh0bWwiPjxzcGFuIGNsYXNzPSJub2RlTGFiZWwiPjxwPnNwbGFzaC5kYXJ0XG5BZmZpY2hlIGzigJnDqWNyYW4gZGUgZMOpbWFycmFnZTwvcD48L3NwYW4+PC9kaXY+PC9mb3JlaWduT2JqZWN0PjwvZz48L2c+PGcgdHJhbnNmb3JtPSJ0cmFuc2xhdGUoNzE4Ljk4MTIzOTMxODg0NzcsIDMyNykiIGlkPSJmbG93Y2hhcnQtQy03NiIgY2xhc3M9Im5vZGUgZGVmYXVsdCI+PHJlY3QgaGVpZ2h0PSI3OCIgd2lkdGg9IjI2MCIgeT0iLTM5IiB4PSItMTMwIiBzdHlsZT0iIiBjbGFzcz0iYmFzaWMgbGFiZWwtY29udGFpbmVyIj48L3JlY3Q+PGcgdHJhbnNmb3JtPSJ0cmFuc2xhdGUoLTEwMCwgLTI0KSIgc3R5bGU9IiIgY2xhc3M9ImxhYmVsIj48cmVjdD48L3JlY3Q+PGZvcmVpZ25PYmplY3QgaGVpZ2h0PSI0OCIgd2lkdGg9IjIwMCI+PGRpdiBzdHlsZT0iZGlzcGxheTogdGFibGU7IHdoaXRlLXNwYWNlOiBicmVhay1zcGFjZXM7IGxpbmUtaGVpZ2h0OiAxLjU7IG1heC13aWR0aDogMjAwcHg7IHRleHQtYWxpZ246IGNlbnRlcjsgd2lkdGg6IDIwMHB4OyIgeG1sbnM9Imh0dHA6Ly93d3cudzMub3JnLzE5OTkveGh0bWwiPjxzcGFuIGNsYXNzPSJub2RlTGFiZWwiPjxwPnNldHVwLmRhcnRcbkNoYXJnZSBsZXMgcHJlZmVyZW5jZXMgZXQgaW5pdCBsZSBjYWNoZTwvcD48L3NwYW4+PC9kaXY+PC9mb3JlaWduT2JqZWN0PjwvZz48L2c+PGcgdHJhbnNmb3JtPSJ0cmFuc2xhdGUoNzE4Ljk4MTIzOTMxODg0NzcsIDQ2NykiIGlkPSJmbG93Y2hhcnQtRC03OCIgY2xhc3M9Im5vZGUgZGVmYXVsdCI+PHJlY3QgaGVpZ2h0PSIxMDIiIHdpZHRoPSIyNjAiIHk9Ii01MSIgeD0iLTEzMCIgc3R5bGU9IiIgY2xhc3M9ImJhc2ljIGxhYmVsLWNvbnRhaW5lciI+PC9yZWN0PjxnIHRyYW5zZm9ybT0idHJhbnNsYXRlKC0xMDAsIC0zNikiIHN0eWxlPSIiIGNsYXNzPSJsYWJlbCI+PHJlY3Q+PC9yZWN0Pjxmb3JlaWduT2JqZWN0IGhlaWdodD0iNzIiIHdpZHRoPSIyMDAiPjxkaXYgc3R5bGU9ImRpc3BsYXk6IHRhYmxlOyB3aGl0ZS1zcGFjZTogYnJlYWstc3BhY2VzOyBsaW5lLWhlaWdodDogMS41OyBtYXgtd2lkdGg6IDIwMHB4OyB0ZXh0LWFsaWduOiBjZW50ZXI7IHdpZHRoOiAyMDBweDsiIHhtbG5zPSJodHRwOi8vd3d3LnczLm9yZy8xOTk5L3hodG1sIj48c3BhbiBjbGFzcz0ibm9kZUxhYmVsIj48cD5vbmJvYXJkaW5nLmRhcnRcbkd1aWRlIGzigJl1dGlsaXNhdGV1ciDDoCBsYSAxcmUgb3V2ZXJ0dXJlPC9wPjwvc3Bhbj48L2Rpdj48L2ZvcmVpZ25PYmplY3Q+PC9nPjwvZz48ZyB0cmFuc2Zvcm09InRyYW5zbGF0ZSg0NzUuNjk5OTk2OTQ4MjQyMiwgNjE5KSIgaWQ9ImZsb3djaGFydC1FLTgwIiBjbGFzcz0ibm9kZSBkZWZhdWx0Ij48cmVjdCBoZWlnaHQ9Ijc4IiB3aWR0aD0iMjYwIiB5PSItMzkiIHg9Ii0xMzAiIHN0eWxlPSIiIGNsYXNzPSJiYXNpYyBsYWJlbC1jb250YWluZXIiPjwvcmVjdD48ZyB0cmFuc2Zvcm09InRyYW5zbGF0ZSgtMTAwLCAtMjQpIiBzdHlsZT0iIiBjbGFzcz0ibGFiZWwiPjxyZWN0PjwvcmVjdD48Zm9yZWlnbk9iamVjdCBoZWlnaHQ9IjQ4IiB3aWR0aD0iMjAwIj48ZGl2IHN0eWxlPSJkaXNwbGF5OiB0YWJsZTsgd2hpdGUtc3BhY2U6IGJyZWFrLXNwYWNlczsgbGluZS1oZWlnaHQ6IDEuNTsgbWF4LXdpZHRoOiAyMDBweDsgdGV4dC1hbGlnbjogY2VudGVyOyB3aWR0aDogMjAwcHg7IiB4bWxucz0iaHR0cDovL3d3dy53My5vcmcvMTk5OS94aHRtbCI+PHNwYW4gY2xhc3M9Im5vZGVMYWJlbCI+PHA+bG9naW4uZGFydFxuw4ljcmFuIGRlIGNvbm5leGlvbiB1dGlsaXNhdGV1cjwvcD48L3NwYW4+PC9kaXY+PC9mb3JlaWduT2JqZWN0PjwvZz48L2c+PGcgdHJhbnNmb3JtPSJ0cmFuc2xhdGUoOTgyLjI2MjQ4MTY4OTQ1MzEsIDYxOSkiIGlkPSJmbG93Y2hhcnQtRi04MiIgY2xhc3M9Im5vZGUgZGVmYXVsdCI+PHJlY3QgaGVpZ2h0PSIxMDIiIHdpZHRoPSIyNjAiIHk9Ii01MSIgeD0iLTEzMCIgc3R5bGU9IiIgY2xhc3M9ImJhc2ljIGxhYmVsLWNvbnRhaW5lciI+PC9yZWN0PjxnIHRyYW5zZm9ybT0idHJhbnNsYXRlKC0xMDAsIC0zNikiIHN0eWxlPSIiIGNsYXNzPSJsYWJlbCI+PHJlY3Q+PC9yZWN0Pjxmb3JlaWduT2JqZWN0IGhlaWdodD0iNzIiIHdpZHRoPSIyMDAiPjxkaXYgc3R5bGU9ImRpc3BsYXk6IHRhYmxlOyB3aGl0ZS1zcGFjZTogYnJlYWstc3BhY2VzOyBsaW5lLWhlaWdodDogMS41OyBtYXgtd2lkdGg6IDIwMHB4OyB0ZXh0LWFsaWduOiBjZW50ZXI7IHdpZHRoOiAyMDBweDsiIHhtbG5zPSJodHRwOi8vd3d3LnczLm9yZy8xOTk5L3hodG1sIj48c3BhbiBjbGFzcz0ibm9kZUxhYmVsIj48cD5zaWdudXAuZGFydFxuw4ljcmFuIGTigJllbnJlZ2lzdHJlbWVudCB1dGlsaXNhdGV1cjwvcD48L3NwYW4+PC9kaXY+PC9mb3JlaWduT2JqZWN0PjwvZz48L2c+PGcgdHJhbnNmb3JtPSJ0cmFuc2xhdGUoOTcyLjI2MjQ4MTY4OTQ1MzEsIDc1OSkiIGlkPSJmbG93Y2hhcnQtRy04NCIgY2xhc3M9Im5vZGUgZGVmYXVsdCI+PHJlY3QgaGVpZ2h0PSI3OCIgd2lkdGg9IjI2MCIgeT0iLTM5IiB4PSItMTMwIiBzdHlsZT0iIiBjbGFzcz0iYmFzaWMgbGFiZWwtY29udGFpbmVyIj48L3JlY3Q+PGcgdHJhbnNmb3JtPSJ0cmFuc2xhdGUoLTEwMCwgLTI0KSIgc3R5bGU9IiIgY2xhc3M9ImxhYmVsIj48cmVjdD48L3JlY3Q+PGZvcmVpZ25PYmplY3QgaGVpZ2h0PSI0OCIgd2lkdGg9IjIwMCI+PGRpdiBzdHlsZT0iZGlzcGxheTogdGFibGU7IHdoaXRlLXNwYWNlOiBicmVhay1zcGFjZXM7IGxpbmUtaGVpZ2h0OiAxLjU7IG1heC13aWR0aDogMjAwcHg7IHRleHQtYWxpZ246IGNlbnRlcjsgd2lkdGg6IDIwMHB4OyIgeG1sbnM9Imh0dHA6Ly93d3cudzMub3JnLzE5OTkveGh0bWwiPjxzcGFuIGNsYXNzPSJub2RlTGFiZWwiPjxwPmxheW91dC5kYXJ0XG5TY2FmZm9sZCBnbG9iYWwgKyB6b25lcyByZXNwb25zaXZlPC9wPjwvc3Bhbj48L2Rpdj48L2ZvcmVpZ25PYmplY3Q+PC9nPjwvZz48ZyB0cmFuc2Zvcm09InRyYW5zbGF0ZSg5NzIuMjYyNDgxNjg5NDUzMSwgODk5KSIgaWQ9ImZsb3djaGFydC1ILTg4IiBjbGFzcz0ibm9kZSBkZWZhdWx0Ij48cmVjdCBoZWlnaHQ9IjEwMiIgd2lkdGg9IjI3NC42ODc1IiB5PSItNTEiIHg9Ii0xMzcuMzQzNzUiIHN0eWxlPSIiIGNsYXNzPSJiYXNpYyBsYWJlbC1jb250YWluZXIiPjwvcmVjdD48ZyB0cmFuc2Zvcm09InRyYW5zbGF0ZSgtMTA3LjM0Mzc1LCAtMzYpIiBzdHlsZT0iIiBjbGFzcz0ibGFiZWwiPjxyZWN0PjwvcmVjdD48Zm9yZWlnbk9iamVjdCBoZWlnaHQ9IjcyIiB3aWR0aD0iMjE0LjY4NzUiPjxkaXYgc3R5bGU9ImRpc3BsYXk6IHRhYmxlOyB3aGl0ZS1zcGFjZTogYnJlYWstc3BhY2VzOyBsaW5lLWhlaWdodDogMS41OyBtYXgtd2lkdGg6IDIwMHB4OyB0ZXh0LWFsaWduOiBjZW50ZXI7IHdpZHRoOiAyMDBweDsiIHhtbG5zPSJodHRwOi8vd3d3LnczLm9yZy8xOTk5L3hodG1sIj48c3BhbiBjbGFzcz0ibm9kZUxhYmVsIj48cD5uYXZpZ2F0aW9uX3BhbmVsLmRhcnRcbk1lbnUgbGF0w6lyYWwgcG91ciBjaGFuZ2VyIGRlIHNlY3Rpb248L3A+PC9zcGFuPjwvZGl2PjwvZm9yZWlnbk9iamVjdD48L2c+PC9nPjxnIHRyYW5zZm9ybT0idHJhbnNsYXRlKDYzMC42OTk5OTY5NDgyNDIyLCA4OTkpIiBpZD0iZmxvd2NoYXJ0LUktOTAiIGNsYXNzPSJub2RlIGRlZmF1bHQiPjxyZWN0IGhlaWdodD0iMTAyIiB3aWR0aD0iMjYwIiB5PSItNTEiIHg9Ii0xMzAiIHN0eWxlPSIiIGNsYXNzPSJiYXNpYyBsYWJlbC1jb250YWluZXIiPjwvcmVjdD48ZyB0cmFuc2Zvcm09InRyYW5zbGF0ZSgtMTAwLCAtMzYpIiBzdHlsZT0iIiBjbGFzcz0ibGFiZWwiPjxyZWN0PjwvcmVjdD48Zm9yZWlnbk9iamVjdCBoZWlnaHQ9IjcyIiB3aWR0aD0iMjAwIj48ZGl2IHN0eWxlPSJkaXNwbGF5OiB0YWJsZTsgd2hpdGUtc3BhY2U6IGJyZWFrLXNwYWNlczsgbGluZS1oZWlnaHQ6IDEuNTsgbWF4LXdpZHRoOiAyMDBweDsgdGV4dC1hbGlnbjogY2VudGVyOyB3aWR0aDogMjAwcHg7IiB4bWxucz0iaHR0cDovL3d3dy53My5vcmcvMTk5OS94aHRtbCI+PHNwYW4gY2xhc3M9Im5vZGVMYWJlbCI+PHA+dG9wX2FwcF9iYXIuZGFydFxuQmFycmUgZOKAmWFwcCBzdXDDqXJpZXVyZSBhdmVjIHRpdHJlL2ljw7RuZXM8L3A+PC9zcGFuPjwvZGl2PjwvZm9yZWlnbk9iamVjdD48L2c+PC9nPjxnIHRyYW5zZm9ybT0idHJhbnNsYXRlKDI5OC44MTI1LCAxMDM5KSIgaWQ9ImZsb3djaGFydC1KLTkyIiBjbGFzcz0ibm9kZSBkZWZhdWx0Ij48cmVjdCBoZWlnaHQ9Ijc4IiB3aWR0aD0iMjYzLjc3NTAwOTE1NTI3MzQ0IiB5PSItMzkiIHg9Ii0xMzEuODg3NTA0NTc3NjM2NzIiIHN0eWxlPSIiIGNsYXNzPSJiYXNpYyBsYWJlbC1jb250YWluZXIiPjwvcmVjdD48ZyB0cmFuc2Zvcm09InRyYW5zbGF0ZSgtMTAxLjg4NzUwNDU3NzYzNjcyLCAtMjQpIiBzdHlsZT0iIiBjbGFzcz0ibGFiZWwiPjxyZWN0PjwvcmVjdD48Zm9yZWlnbk9iamVjdCBoZWlnaHQ9IjQ4IiB3aWR0aD0iMjAzLjc3NTAwOTE1NTI3MzQ0Ij48ZGl2IHN0eWxlPSJkaXNwbGF5OiB0YWJsZTsgd2hpdGUtc3BhY2U6IGJyZWFrLXNwYWNlczsgbGluZS1oZWlnaHQ6IDEuNTsgbWF4LXdpZHRoOiAyMDBweDsgdGV4dC1hbGlnbjogY2VudGVyOyB3aWR0aDogMjAwcHg7IiB4bWxucz0iaHR0cDovL3d3dy53My5vcmcvMTk5OS94aHRtbCI+PHNwYW4gY2xhc3M9Im5vZGVMYWJlbCI+PHA+YW5hbHl0aWNzcGFnZS5kYXJ0XG5BZmZpY2hlIGdyYXBoaXF1ZXMgZGUgdmVudGVzPC9wPjwvc3Bhbj48L2Rpdj48L2ZvcmVpZ25PYmplY3Q+PC9nPjwvZz48ZyB0cmFuc2Zvcm09InRyYW5zbGF0ZSgxODg3Ljk4MTIzMTY4OTQ1MzEsIDEwMzkpIiBpZD0iZmxvd2NoYXJ0LUstOTQiIGNsYXNzPSJub2RlIGRlZmF1bHQiPjxyZWN0IGhlaWdodD0iNzgiIHdpZHRoPSIyNjAiIHk9Ii0zOSIgeD0iLTEzMCIgc3R5bGU9IiIgY2xhc3M9ImJhc2ljIGxhYmVsLWNvbnRhaW5lciI+PC9yZWN0PjxnIHRyYW5zZm9ybT0idHJhbnNsYXRlKC0xMDAsIC0yNCkiIHN0eWxlPSIiIGNsYXNzPSJsYWJlbCI+PHJlY3Q+PC9yZWN0Pjxmb3JlaWduT2JqZWN0IGhlaWdodD0iNDgiIHdpZHRoPSIyMDAiPjxkaXYgc3R5bGU9ImRpc3BsYXk6IHRhYmxlOyB3aGl0ZS1zcGFjZTogYnJlYWstc3BhY2VzOyBsaW5lLWhlaWdodDogMS41OyBtYXgtd2lkdGg6IDIwMHB4OyB0ZXh0LWFsaWduOiBjZW50ZXI7IHdpZHRoOiAyMDBweDsiIHhtbG5zPSJodHRwOi8vd3d3LnczLm9yZy8xOTk5L3hodG1sIj48c3BhbiBjbGFzcz0ibm9kZUxhYmVsIj48cD5wcm9kdWN0cGFnZS5kYXJ0XG5MaXN0ZSBldCByZWNoZXJjaGUgZGUgcHJvZHVpdHM8L3A+PC9zcGFuPjwvZGl2PjwvZm9yZWlnbk9iamVjdD48L2c+PC9nPjxnIHRyYW5zZm9ybT0idHJhbnNsYXRlKDY0MC4wMzc0OTA4NDQ3MjY2LCAxMDM5KSIgaWQ9ImZsb3djaGFydC1MLTk2IiBjbGFzcz0ibm9kZSBkZWZhdWx0Ij48cmVjdCBoZWlnaHQ9Ijc4IiB3aWR0aD0iMjc4LjY3NTAwMzA1MTc1NzgiIHk9Ii0zOSIgeD0iLTEzOS4zMzc1MDE1MjU4Nzg5IiBzdHlsZT0iIiBjbGFzcz0iYmFzaWMgbGFiZWwtY29udGFpbmVyIj48L3JlY3Q+PGcgdHJhbnNmb3JtPSJ0cmFuc2xhdGUoLTEwOS4zMzc1MDE1MjU4Nzg5LCAtMjQpIiBzdHlsZT0iIiBjbGFzcz0ibGFiZWwiPjxyZWN0PjwvcmVjdD48Zm9yZWlnbk9iamVjdCBoZWlnaHQ9IjQ4IiB3aWR0aD0iMjE4LjY3NTAwMzA1MTc1NzgiPjxkaXYgc3R5bGU9ImRpc3BsYXk6IHRhYmxlOyB3aGl0ZS1zcGFjZTogYnJlYWstc3BhY2VzOyBsaW5lLWhlaWdodDogMS41OyBtYXgtd2lkdGg6IDIwMHB4OyB0ZXh0LWFsaWduOiBjZW50ZXI7IHdpZHRoOiAyMDBweDsiIHhtbG5zPSJodHRwOi8vd3d3LnczLm9yZy8xOTk5L3hodG1sIj48c3BhbiBjbGFzcz0ibm9kZUxhYmVsIj48cD5zYWxlc19oaXN0b3J5LmRhcnRcbkhpc3RvcmlxdWUgZGVzIHRyYW5zYWN0aW9uczwvcD48L3NwYW4+PC9kaXY+PC9mb3JlaWduT2JqZWN0PjwvZz48L2c+PGcgdHJhbnNmb3JtPSJ0cmFuc2xhdGUoOTcyLjI2MjQ4MTY4OTQ1MzEsIDEwMzkpIiBpZD0iZmxvd2NoYXJ0LU0tOTgiIGNsYXNzPSJub2RlIGRlZmF1bHQiPjxyZWN0IGhlaWdodD0iNzgiIHdpZHRoPSIyODUuNzc1MDA5MTU1MjczNDQiIHk9Ii0zOSIgeD0iLTE0Mi44ODc1MDQ1Nzc2MzY3MiIgc3R5bGU9IiIgY2xhc3M9ImJhc2ljIGxhYmVsLWNvbnRhaW5lciI+PC9yZWN0PjxnIHRyYW5zZm9ybT0idHJhbnNsYXRlKC0xMTIuODg3NTA0NTc3NjM2NzIsIC0yNCkiIHN0eWxlPSIiIGNsYXNzPSJsYWJlbCI+PHJlY3Q+PC9yZWN0Pjxmb3JlaWduT2JqZWN0IGhlaWdodD0iNDgiIHdpZHRoPSIyMjUuNzc1MDA5MTU1MjczNDQiPjxkaXYgc3R5bGU9ImRpc3BsYXk6IHRhYmxlOyB3aGl0ZS1zcGFjZTogYnJlYWstc3BhY2VzOyBsaW5lLWhlaWdodDogMS41OyBtYXgtd2lkdGg6IDIwMHB4OyB0ZXh0LWFsaWduOiBjZW50ZXI7IHdpZHRoOiAyMDBweDsiIHhtbG5zPSJodHRwOi8vd3d3LnczLm9yZy8xOTk5L3hodG1sIj48c3BhbiBjbGFzcz0ibm9kZUxhYmVsIj48cD5zZXR0aW5nc3BhZ2UuZGFydFxuUGFyYW3DqHRyZXMgZGUgbOKAmWFwcGxpY2F0aW9uPC9wPjwvc3Bhbj48L2Rpdj48L2ZvcmVpZ25PYmplY3Q+PC9nPjwvZz48ZyB0cmFuc2Zvcm09InRyYW5zbGF0ZSgxMzExLjEzNzQ4MTY4OTQ1MzEsIDEwMzkpIiBpZD0iZmxvd2NoYXJ0LU4tMTAwIiBjbGFzcz0ibm9kZSBkZWZhdWx0Ij48cmVjdCBoZWlnaHQ9Ijc4IiB3aWR0aD0iMjkxLjk3NTAwNjEwMzUxNTYiIHk9Ii0zOSIgeD0iLTE0NS45ODc1MDMwNTE3NTc4IiBzdHlsZT0iIiBjbGFzcz0iYmFzaWMgbGFiZWwtY29udGFpbmVyIj48L3JlY3Q+PGcgdHJhbnNmb3JtPSJ0cmFuc2xhdGUoLTExNS45ODc1MDMwNTE3NTc4MSwgLTI0KSIgc3R5bGU9IiIgY2xhc3M9ImxhYmVsIj48cmVjdD48L3JlY3Q+PGZvcmVpZ25PYmplY3QgaGVpZ2h0PSI0OCIgd2lkdGg9IjIzMS45NzUwMDYxMDM1MTU2MiI+PGRpdiBzdHlsZT0iZGlzcGxheTogdGFibGU7IHdoaXRlLXNwYWNlOiBicmVhay1zcGFjZXM7IGxpbmUtaGVpZ2h0OiAxLjU7IG1heC13aWR0aDogMjAwcHg7IHRleHQtYWxpZ246IGNlbnRlcjsgd2lkdGg6IDIwMHB4OyIgeG1sbnM9Imh0dHA6Ly93d3cudzMub3JnLzE5OTkveGh0bWwiPjxzcGFuIGNsYXNzPSJub2RlTGFiZWwiPjxwPm5vdGlmaWNhdGlvbl9wYWdlLmRhcnRcbkFmZmljaGUgYWxlcnRlcyAmYW1wOyBub3RpZmljYXRpb25zPC9wPjwvc3Bhbj48L2Rpdj48L2ZvcmVpZ25PYmplY3Q+PC9nPjwvZz48ZyB0cmFuc2Zvcm09InRyYW5zbGF0ZSgxOTM5LjE2MjQ4MzIxNTMzMiwgMTE2NykiIGlkPSJmbG93Y2hhcnQtTy0xMDIiIGNsYXNzPSJub2RlIGRlZmF1bHQiPjxyZWN0IGhlaWdodD0iNzgiIHdpZHRoPSIyNjAiIHk9Ii0zOSIgeD0iLTEzMCIgc3R5bGU9IiIgY2xhc3M9ImJhc2ljIGxhYmVsLWNvbnRhaW5lciI+PC9yZWN0PjxnIHRyYW5zZm9ybT0idHJhbnNsYXRlKC0xMDAsIC0yNCkiIHN0eWxlPSIiIGNsYXNzPSJsYWJlbCI+PHJlY3Q+PC9yZWN0Pjxmb3JlaWduT2JqZWN0IGhlaWdodD0iNDgiIHdpZHRoPSIyMDAiPjxkaXYgc3R5bGU9ImRpc3BsYXk6IHRhYmxlOyB3aGl0ZS1zcGFjZTogYnJlYWstc3BhY2VzOyBsaW5lLWhlaWdodDogMS41OyBtYXgtd2lkdGg6IDIwMHB4OyB0ZXh0LWFsaWduOiBjZW50ZXI7IHdpZHRoOiAyMDBweDsiIHhtbG5zPSJodHRwOi8vd3d3LnczLm9yZy8xOTk5L3hodG1sIj48c3BhbiBjbGFzcz0ibm9kZUxhYmVsIj48cD5iaWxsaW5nLmRhcnRcbkTDqWJ1dCBkdSBwcm9jZXNzdXMgZGUgZmFjdHVyYXRpb248L3A+PC9zcGFuPjwvZGl2PjwvZm9yZWlnbk9iamVjdD48L2c+PC9nPjxnIHRyYW5zZm9ybT0idHJhbnNsYXRlKDIxMzIuNTcxODUzNjM3Njk1MywgMTI5NSkiIGlkPSJmbG93Y2hhcnQtUC0xMDQiIGNsYXNzPSJub2RlIGRlZmF1bHQiPjxyZWN0IGhlaWdodD0iNzgiIHdpZHRoPSIzMjAuMjUiIHk9Ii0zOSIgeD0iLTE2MC4xMjUiIHN0eWxlPSIiIGNsYXNzPSJiYXNpYyBsYWJlbC1jb250YWluZXIiPjwvcmVjdD48ZyB0cmFuc2Zvcm09InRyYW5zbGF0ZSgtMTMwLjEyNSwgLTI0KSIgc3R5bGU9IiIgY2xhc3M9ImxhYmVsIj48cmVjdD48L3JlY3Q+PGZvcmVpZ25PYmplY3QgaGVpZ2h0PSI0OCIgd2lkdGg9IjI2MC4yNSI+PGRpdiBzdHlsZT0iZGlzcGxheTogdGFibGU7IHdoaXRlLXNwYWNlOiBicmVhay1zcGFjZXM7IGxpbmUtaGVpZ2h0OiAxLjU7IG1heC13aWR0aDogMjAwcHg7IHRleHQtYWxpZ246IGNlbnRlcjsgd2lkdGg6IDIwMHB4OyIgeG1sbnM9Imh0dHA6Ly93d3cudzMub3JnLzE5OTkveGh0bWwiPjxzcGFuIGNsYXNzPSJub2RlTGFiZWwiPjxwPmFkZF9wcm9kdWN0c19wYWdlLmRhcnRcblPDqWxlY3Rpb24gZGVzIGFydGljbGVzIMOgIGZhY3R1cmVyPC9wPjwvc3Bhbj48L2Rpdj48L2ZvcmVpZ25PYmplY3Q+PC9nPjwvZz48ZyB0cmFuc2Zvcm09InRyYW5zbGF0ZSgyMTMyLjU3MTg1MzYzNzY5NTMsIDE0MjMpIiBpZD0iZmxvd2NoYXJ0LVEtMTA2IiBjbGFzcz0ibm9kZSBkZWZhdWx0Ij48cmVjdCBoZWlnaHQ9Ijc4IiB3aWR0aD0iMzAwLjQwMDAwOTE1NTI3MzQ0IiB5PSItMzkiIHg9Ii0xNTAuMjAwMDA0NTc3NjM2NzIiIHN0eWxlPSIiIGNsYXNzPSJiYXNpYyBsYWJlbC1jb250YWluZXIiPjwvcmVjdD48ZyB0cmFuc2Zvcm09InRyYW5zbGF0ZSgtMTIwLjIwMDAwNDU3NzYzNjcyLCAtMjQpIiBzdHlsZT0iIiBjbGFzcz0ibGFiZWwiPjxyZWN0PjwvcmVjdD48Zm9yZWlnbk9iamVjdCBoZWlnaHQ9IjQ4IiB3aWR0aD0iMjQwLjQwMDAwOTE1NTI3MzQ0Ij48ZGl2IHN0eWxlPSJkaXNwbGF5OiB0YWJsZTsgd2hpdGUtc3BhY2U6IGJyZWFrLXNwYWNlczsgbGluZS1oZWlnaHQ6IDEuNTsgbWF4LXdpZHRoOiAyMDBweDsgdGV4dC1hbGlnbjogY2VudGVyOyB3aWR0aDogMjAwcHg7IiB4bWxucz0iaHR0cDovL3d3dy53My5vcmcvMTk5OS94aHRtbCI+PHNwYW4gY2xhc3M9Im5vZGVMYWJlbCI+PHA+Y3VzdG9tZXJfaW5mb19wYWdlLmRhcnRcblNhaXNpZSBkZXMgaW5mb3MgY2xpZW50PC9wPjwvc3Bhbj48L2Rpdj48L2ZvcmVpZ25PYmplY3Q+PC9nPjwvZz48ZyB0cmFuc2Zvcm09InRyYW5zbGF0ZSgyNzE3LjAwOTM0NjAwODMwMSwgMTU3NikiIGlkPSJmbG93Y2hhcnQtUi0xMDgiIGNsYXNzPSJub2RlIGRlZmF1bHQiPjxyZWN0IGhlaWdodD0iNzgiIHdpZHRoPSIyNjUuNzM3NTAzMDUxNzU3OCIgeT0iLTM5IiB4PSItMTMyLjg2ODc1MTUyNTg3ODkiIHN0eWxlPSIiIGNsYXNzPSJiYXNpYyBsYWJlbC1jb250YWluZXIiPjwvcmVjdD48ZyB0cmFuc2Zvcm09InRyYW5zbGF0ZSgtMTAyLjg2ODc1MTUyNTg3ODksIC0yNCkiIHN0eWxlPSIiIGNsYXNzPSJsYWJlbCI+PHJlY3Q+PC9yZWN0Pjxmb3JlaWduT2JqZWN0IGhlaWdodD0iNDgiIHdpZHRoPSIyMDUuNzM3NTAzMDUxNzU3OCI+PGRpdiBzdHlsZT0iZGlzcGxheTogdGFibGU7IHdoaXRlLXNwYWNlOiBicmVhay1zcGFjZXM7IGxpbmUtaGVpZ2h0OiAxLjU7IG1heC13aWR0aDogMjAwcHg7IHRleHQtYWxpZ246IGNlbnRlcjsgd2lkdGg6IDIwMHB4OyIgeG1sbnM9Imh0dHA6Ly93d3cudzMub3JnLzE5OTkveGh0bWwiPjxzcGFuIGNsYXNzPSJub2RlTGFiZWwiPjxwPnBheW1lbnRzX3BhZ2UuZGFydFxuQ2hvaXggZHUgbW9kZSBkZSBwYWllbWVudDwvcD48L3NwYW4+PC9kaXY+PC9mb3JlaWduT2JqZWN0PjwvZz48L2c+PGcgdHJhbnNmb3JtPSJ0cmFuc2xhdGUoMjcxNy4wMDkzNDYwMDgzMDEsIDE3NTQpIiBpZD0iZmxvd2NoYXJ0LVMtMTEwIiBjbGFzcz0ibm9kZSBkZWZhdWx0Ij48cmVjdCBoZWlnaHQ9Ijc4IiB3aWR0aD0iMjYwIiB5PSItMzkiIHg9Ii0xMzAiIHN0eWxlPSIiIGNsYXNzPSJiYXNpYyBsYWJlbC1jb250YWluZXIiPjwvcmVjdD48ZyB0cmFuc2Zvcm09InRyYW5zbGF0ZSgtMTAwLCAtMjQpIiBzdHlsZT0iIiBjbGFzcz0ibGFiZWwiPjxyZWN0PjwvcmVjdD48Zm9yZWlnbk9iamVjdCBoZWlnaHQ9IjQ4IiB3aWR0aD0iMjAwIj48ZGl2IHN0eWxlPSJkaXNwbGF5OiB0YWJsZTsgd2hpdGUtc3BhY2U6IGJyZWFrLXNwYWNlczsgbGluZS1oZWlnaHQ6IDEuNTsgbWF4LXdpZHRoOiAyMDBweDsgdGV4dC1hbGlnbjogY2VudGVyOyB3aWR0aDogMjAwcHg7IiB4bWxucz0iaHR0cDovL3d3dy53My5vcmcvMTk5OS94aHRtbCI+PHNwYW4gY2xhc3M9Im5vZGVMYWJlbCI+PHA+c2luZ2xlX2JpbGwuZGFydFxuRMOpdGFpbCBk4oCZdW5lIGZhY3R1cmUgdW5pcXVlPC9wPjwvc3Bhbj48L2Rpdj48L2ZvcmVpZ25PYmplY3Q+PC9nPjwvZz48ZyB0cmFuc2Zvcm09InRyYW5zbGF0ZSgyNzE3LjAwOTM0NjAwODMwMSwgMTkzMikiIGlkPSJmbG93Y2hhcnQtVC0xMTIiIGNsYXNzPSJub2RlIGRlZmF1bHQiPjxyZWN0IGhlaWdodD0iNzgiIHdpZHRoPSIzMzEuOTYyNDkzODk2NDg0NCIgeT0iLTM5IiB4PSItMTY1Ljk4MTI0Njk0ODI0MjIiIHN0eWxlPSIiIGNsYXNzPSJiYXNpYyBsYWJlbC1jb250YWluZXIiPjwvcmVjdD48ZyB0cmFuc2Zvcm09InRyYW5zbGF0ZSgtMTM1Ljk4MTI0Njk0ODI0MjIsIC0yNCkiIHN0eWxlPSIiIGNsYXNzPSJsYWJlbCI+PHJlY3Q+PC9yZWN0Pjxmb3JlaWduT2JqZWN0IGhlaWdodD0iNDgiIHdpZHRoPSIyNzEuOTYyNDkzODk2NDg0NCI+PGRpdiBzdHlsZT0iZGlzcGxheTogdGFibGU7IHdoaXRlLXNwYWNlOiBicmVhay1zcGFjZXM7IGxpbmUtaGVpZ2h0OiAxLjU7IG1heC13aWR0aDogMjAwcHg7IHRleHQtYWxpZ246IGNlbnRlcjsgd2lkdGg6IDIwMHB4OyIgeG1sbnM9Imh0dHA6Ly93d3cudzMub3JnLzE5OTkveGh0bWwiPjxzcGFuIGNsYXNzPSJub2RlTGFiZWwiPjxwPnBheW1lbnRfc3VjY2Vzcy5kYXJ0XG5Db25maXJtYXRpb24gJmFtcDsgcsOpY2FwaXR1bGF0aWY8L3A+PC9zcGFuPjwvZGl2PjwvZm9yZWlnbk9iamVjdD48L2c+PC9nPjxnIHRyYW5zZm9ybT0idHJhbnNsYXRlKDQ2NS42OTk5OTY5NDgyNDIyLCAxNTc2KSIgaWQ9ImZsb3djaGFydC1MQy0xMTMiIGNsYXNzPSJub2RlIGRlZmF1bHQiPjxyZWN0IGhlaWdodD0iNzgiIHdpZHRoPSIyODIuMzYyNTAzMDUxNzU3OCIgeT0iLTM5IiB4PSItMTQxLjE4MTI1MTUyNTg3ODkiIHN0eWxlPSIiIGNsYXNzPSJiYXNpYyBsYWJlbC1jb250YWluZXIiPjwvcmVjdD48ZyB0cmFuc2Zvcm09InRyYW5zbGF0ZSgtMTExLjE4MTI1MTUyNTg3ODksIC0yNCkiIHN0eWxlPSIiIGNsYXNzPSJsYWJlbCI+PHJlY3Q+PC9yZWN0Pjxmb3JlaWduT2JqZWN0IGhlaWdodD0iNDgiIHdpZHRoPSIyMjIuMzYyNTAzMDUxNzU3OCI+PGRpdiBzdHlsZT0iZGlzcGxheTogdGFibGU7IHdoaXRlLXNwYWNlOiBicmVhay1zcGFjZXM7IGxpbmUtaGVpZ2h0OiAxLjU7IG1heC13aWR0aDogMjAwcHg7IHRleHQtYWxpZ246IGNlbnRlcjsgd2lkdGg6IDIwMHB4OyIgeG1sbnM9Imh0dHA6Ly93d3cudzMub3JnLzE5OTkveGh0bWwiPjxzcGFuIGNsYXNzPSJub2RlTGFiZWwiPjxwPmxvZ2luX2NvbnRyb2xsZXIuZGFydFxuTG9naXF1ZSAmYW1wOyB2YWxpZGF0aW9uIGNvbm5leGlvbjwvcD48L3NwYW4+PC9kaXY+PC9mb3JlaWduT2JqZWN0PjwvZz48L2c+PGcgdHJhbnNmb3JtPSJ0cmFuc2xhdGUoMTA0Ni41MTU2MDk3NDEyMTEsIDE1NzYpIiBpZD0iZmxvd2NoYXJ0LVNDLTExNCIgY2xhc3M9Im5vZGUgZGVmYXVsdCI+PHJlY3QgaGVpZ2h0PSI3OCIgd2lkdGg9IjI5MC4wODc1MDkxNTUyNzM0NCIgeT0iLTM5IiB4PSItMTQ1LjA0Mzc1NDU3NzYzNjcyIiBzdHlsZT0iIiBjbGFzcz0iYmFzaWMgbGFiZWwtY29udGFpbmVyIj48L3JlY3Q+PGcgdHJhbnNmb3JtPSJ0cmFuc2xhdGUoLTExNS4wNDM3NTQ1Nzc2MzY3MiwgLTI0KSIgc3R5bGU9IiIgY2xhc3M9ImxhYmVsIj48cmVjdD48L3JlY3Q+PGZvcmVpZ25PYmplY3QgaGVpZ2h0PSI0OCIgd2lkdGg9IjIzMC4wODc1MDkxNTUyNzM0NCI+PGRpdiBzdHlsZT0iZGlzcGxheTogdGFibGU7IHdoaXRlLXNwYWNlOiBicmVhay1zcGFjZXM7IGxpbmUtaGVpZ2h0OiAxLjU7IG1heC13aWR0aDogMjAwcHg7IHRleHQtYWxpZ246IGNlbnRlcjsgd2lkdGg6IDIwMHB4OyIgeG1sbnM9Imh0dHA6Ly93d3cudzMub3JnLzE5OTkveGh0bWwiPjxzcGFuIGNsYXNzPSJub2RlTGFiZWwiPjxwPnNpbXBsZV91aV9jb250cm9sbGVyLmRhcnRcbsOJdGF0IHJlc3BvbnNpdmUvVUk8L3A+PC9zcGFuPjwvZGl2PjwvZm9yZWlnbk9iamVjdD48L2c+PC9nPjxnIHRyYW5zZm9ybT0idHJhbnNsYXRlKDEzOTIuNTM0MzYyNzkyOTY4OCwgMTU3NikiIGlkPSJmbG93Y2hhcnQtUENDLTExNSIgY2xhc3M9Im5vZGUgZGVmYXVsdCI+PHJlY3QgaGVpZ2h0PSI3OCIgd2lkdGg9IjMwMS45NDk5OTY5NDgyNDIyIiB5PSItMzkiIHg9Ii0xNTAuOTc0OTk4NDc0MTIxMSIgc3R5bGU9IiIgY2xhc3M9ImJhc2ljIGxhYmVsLWNvbnRhaW5lciI+PC9yZWN0PjxnIHRyYW5zZm9ybT0idHJhbnNsYXRlKC0xMjAuOTc0OTk4NDc0MTIxMSwgLTI0KSIgc3R5bGU9IiIgY2xhc3M9ImxhYmVsIj48cmVjdD48L3JlY3Q+PGZvcmVpZ25PYmplY3QgaGVpZ2h0PSI0OCIgd2lkdGg9IjI0MS45NDk5OTY5NDgyNDIyIj48ZGl2IHN0eWxlPSJkaXNwbGF5OiB0YWJsZTsgd2hpdGUtc3BhY2U6IGJyZWFrLXNwYWNlczsgbGluZS1oZWlnaHQ6IDEuNTsgbWF4LXdpZHRoOiAyMDBweDsgdGV4dC1hbGlnbjogY2VudGVyOyB3aWR0aDogMjAwcHg7IiB4bWxucz0iaHR0cDovL3d3dy53My5vcmcvMTk5OS94aHRtbCI+PHNwYW4gY2xhc3M9Im5vZGVMYWJlbCI+PHA+cHJvZHVjdF9jb250cm9sbGVyLmRhcnRcbkdlc3Rpb24gZHUgY2F0YWxvZ3VlIHByb2R1aXRzPC9wPjwvc3Bhbj48L2Rpdj48L2ZvcmVpZ25PYmplY3Q+PC9nPjwvZz48ZyB0cmFuc2Zvcm09InRyYW5zbGF0ZSgxNzQ1Ljc1MzExMjc5Mjk2ODgsIDE1NzYpIiBpZD0iZmxvd2NoYXJ0LUlDQy0xMTYiIGNsYXNzPSJub2RlIGRlZmF1bHQiPjxyZWN0IGhlaWdodD0iNzgiIHdpZHRoPSIzMDQuNDg3NTAzMDUxNzU3OCIgeT0iLTM5IiB4PSItMTUyLjI0Mzc1MTUyNTg3ODkiIHN0eWxlPSIiIGNsYXNzPSJiYXNpYyBsYWJlbC1jb250YWluZXIiPjwvcmVjdD48ZyB0cmFuc2Zvcm09InRyYW5zbGF0ZSgtMTIyLjI0Mzc1MTUyNTg3ODksIC0yNCkiIHN0eWxlPSIiIGNsYXNzPSJsYWJlbCI+PHJlY3Q+PC9yZWN0Pjxmb3JlaWduT2JqZWN0IGhlaWdodD0iNDgiIHdpZHRoPSIyNDQuNDg3NTAzMDUxNzU3OCI+PGRpdiBzdHlsZT0iZGlzcGxheTogdGFibGU7IHdoaXRlLXNwYWNlOiBicmVhay1zcGFjZXM7IGxpbmUtaGVpZ2h0OiAxLjU7IG1heC13aWR0aDogMjAwcHg7IHRleHQtYWxpZ246IGNlbnRlcjsgd2lkdGg6IDIwMHB4OyIgeG1sbnM9Imh0dHA6Ly93d3cudzMub3JnLzE5OTkveGh0bWwiPjxzcGFuIGNsYXNzPSJub2RlTGFiZWwiPjxwPmludm9pY2VfY29udHJvbGxlci5kYXJ0XG5Db250csO0bGUgbGUgd29ya2Zsb3cgZmFjdHVyYXRpb248L3A+PC9zcGFuPjwvZGl2PjwvZm9yZWlnbk9iamVjdD48L2c+PC9nPjxnIHRyYW5zZm9ybT0idHJhbnNsYXRlKDIxMzIuNTcxODUzNjM3Njk1MywgMTU3NikiIGlkPSJmbG93Y2hhcnQtQ0RDLTExNyIgY2xhc3M9Im5vZGUgZGVmYXVsdCI+PHJlY3QgaGVpZ2h0PSI3OCIgd2lkdGg9IjM2OS4xNDk5OTM4OTY0ODQ0IiB5PSItMzkiIHg9Ii0xODQuNTc0OTk2OTQ4MjQyMiIgc3R5bGU9IiIgY2xhc3M9ImJhc2ljIGxhYmVsLWNvbnRhaW5lciI+PC9yZWN0PjxnIHRyYW5zZm9ybT0idHJhbnNsYXRlKC0xNTQuNTc0OTk2OTQ4MjQyMiwgLTI0KSIgc3R5bGU9IiIgY2xhc3M9ImxhYmVsIj48cmVjdD48L3JlY3Q+PGZvcmVpZ25PYmplY3QgaGVpZ2h0PSI0OCIgd2lkdGg9IjMwOS4xNDk5OTM4OTY0ODQ0Ij48ZGl2IHN0eWxlPSJkaXNwbGF5OiB0YWJsZTsgd2hpdGUtc3BhY2U6IGJyZWFrLXNwYWNlczsgbGluZS1oZWlnaHQ6IDEuNTsgbWF4LXdpZHRoOiAyMDBweDsgdGV4dC1hbGlnbjogY2VudGVyOyB3aWR0aDogMjAwcHg7IiB4bWxucz0iaHR0cDovL3d3dy53My5vcmcvMTk5OS94aHRtbCI+PHNwYW4gY2xhc3M9Im5vZGVMYWJlbCI+PHA+Y3VzdG9tZXJfZGV0YWlsc19jb250cm9sbGVyLmRhcnRcbkdlc3Rpb24gZGVzIGluZm9zIGNsaWVudDwvcD48L3NwYW4+PC9kaXY+PC9mb3JlaWduT2JqZWN0PjwvZz48L2c+PGcgdHJhbnNmb3JtPSJ0cmFuc2xhdGUoNDY1LjY5OTk5Njk0ODI0MjIsIDE3NTQpIiBpZD0iZmxvd2NoYXJ0LUxTLTExOCIgY2xhc3M9Im5vZGUgZGVmYXVsdCI+PHJlY3QgaGVpZ2h0PSI3OCIgd2lkdGg9IjI3My44Mzc1MDkxNTUyNzM0NCIgeT0iLTM5IiB4PSItMTM2LjkxODc1NDU3NzYzNjcyIiBzdHlsZT0iIiBjbGFzcz0iYmFzaWMgbGFiZWwtY29udGFpbmVyIj48L3JlY3Q+PGcgdHJhbnNmb3JtPSJ0cmFuc2xhdGUoLTEwNi45MTg3NTQ1Nzc2MzY3MiwgLTI0KSIgc3R5bGU9IiIgY2xhc3M9ImxhYmVsIj48cmVjdD48L3JlY3Q+PGZvcmVpZ25PYmplY3QgaGVpZ2h0PSI0OCIgd2lkdGg9IjIxMy44Mzc1MDkxNTUyNzM0NCI+PGRpdiBzdHlsZT0iZGlzcGxheTogdGFibGU7IHdoaXRlLXNwYWNlOiBicmVhay1zcGFjZXM7IGxpbmUtaGVpZ2h0OiAxLjU7IG1heC13aWR0aDogMjAwcHg7IHRleHQtYWxpZ246IGNlbnRlcjsgd2lkdGg6IDIwMHB4OyIgeG1sbnM9Imh0dHA6Ly93d3cudzMub3JnLzE5OTkveGh0bWwiPjxzcGFuIGNsYXNzPSJub2RlTGFiZWwiPjxwPmxvZ2luX3NlcnZpY2UuZGFydFxuUmVxdcOqdGVzIEhUVFAgYXV0aDwvcD48L3NwYW4+PC9kaXY+PC9mb3JlaWduT2JqZWN0PjwvZz48L2c+PGcgdHJhbnNmb3JtPSJ0cmFuc2xhdGUoMTM5Mi41MzQzNjI3OTI5Njg4LCAxNzU0KSIgaWQ9ImZsb3djaGFydC1QUy0xMTkiIGNsYXNzPSJub2RlIGRlZmF1bHQiPjxyZWN0IGhlaWdodD0iNzgiIHdpZHRoPSIyOTQuODM3NTA5MTU1MjczNDQiIHk9Ii0zOSIgeD0iLTE0Ny40MTg3NTQ1Nzc2MzY3MiIgc3R5bGU9IiIgY2xhc3M9ImJhc2ljIGxhYmVsLWNvbnRhaW5lciI+PC9yZWN0PjxnIHRyYW5zZm9ybT0idHJhbnNsYXRlKC0xMTcuNDE4NzU0NTc3NjM2NzIsIC0yNCkiIHN0eWxlPSIiIGNsYXNzPSJsYWJlbCI+PHJlY3Q+PC9yZWN0Pjxmb3JlaWduT2JqZWN0IGhlaWdodD0iNDgiIHdpZHRoPSIyMzQuODM3NTA5MTU1MjczNDQiPjxkaXYgc3R5bGU9ImRpc3BsYXk6IHRhYmxlOyB3aGl0ZS1zcGFjZTogYnJlYWstc3BhY2VzOyBsaW5lLWhlaWdodDogMS41OyBtYXgtd2lkdGg6IDIwMHB4OyB0ZXh0LWFsaWduOiBjZW50ZXI7IHdpZHRoOiAyMDBweDsiIHhtbG5zPSJodHRwOi8vd3d3LnczLm9yZy8xOTk5L3hodG1sIj48c3BhbiBjbGFzcz0ibm9kZUxhYmVsIj48cD5wcm9kdWN0X3NlcnZpY2UuZGFydFxuUmVxdcOqdGVzIEhUVFAgcHJvZHVpdHM8L3A+PC9zcGFuPjwvZGl2PjwvZm9yZWlnbk9iamVjdD48L2c+PC9nPjxnIHRyYW5zZm9ybT0idHJhbnNsYXRlKDE5MzkuMTYyNDgzMjE1MzMyLCAxNzU0KSIgaWQ9ImZsb3djaGFydC1JUy0xMjAiIGNsYXNzPSJub2RlIGRlZmF1bHQiPjxyZWN0IGhlaWdodD0iNzgiIHdpZHRoPSIyOTAuMTI1IiB5PSItMzkiIHg9Ii0xNDUuMDYyNSIgc3R5bGU9IiIgY2xhc3M9ImJhc2ljIGxhYmVsLWNvbnRhaW5lciI+PC9yZWN0PjxnIHRyYW5zZm9ybT0idHJhbnNsYXRlKC0xMTUuMDYyNSwgLTI0KSIgc3R5bGU9IiIgY2xhc3M9ImxhYmVsIj48cmVjdD48L3JlY3Q+PGZvcmVpZ25PYmplY3QgaGVpZ2h0PSI0OCIgd2lkdGg9IjIzMC4xMjUiPjxkaXYgc3R5bGU9ImRpc3BsYXk6IHRhYmxlOyB3aGl0ZS1zcGFjZTogYnJlYWstc3BhY2VzOyBsaW5lLWhlaWdodDogMS41OyBtYXgtd2lkdGg6IDIwMHB4OyB0ZXh0LWFsaWduOiBjZW50ZXI7IHdpZHRoOiAyMDBweDsiIHhtbG5zPSJodHRwOi8vd3d3LnczLm9yZy8xOTk5L3hodG1sIj48c3BhbiBjbGFzcz0ibm9kZUxhYmVsIj48cD5pbnZvaWNlX3NlcnZpY2UuZGFydFxuUmVxdcOqdGVzIEhUVFAgZmFjdHVyYXRpb248L3A+PC9zcGFuPjwvZGl2PjwvZm9yZWlnbk9iamVjdD48L2c+PC9nPjxnIHRyYW5zZm9ybT0idHJhbnNsYXRlKDE2NS43ODEyNSwgMTkzMikiIGlkPSJmbG93Y2hhcnQtTFJlcS0xMzMiIGNsYXNzPSJub2RlIGRlZmF1bHQiPjxyZWN0IGhlaWdodD0iNTQiIHdpZHRoPSIyNDUuNTYyNSIgeT0iLTI3IiB4PSItMTIyLjc4MTI1IiBzdHlsZT0iIiBjbGFzcz0iYmFzaWMgbGFiZWwtY29udGFpbmVyIj48L3JlY3Q+PGcgdHJhbnNmb3JtPSJ0cmFuc2xhdGUoLTkyLjc4MTI1LCAtMTIpIiBzdHlsZT0iIiBjbGFzcz0ibGFiZWwiPjxyZWN0PjwvcmVjdD48Zm9yZWlnbk9iamVjdCBoZWlnaHQ9IjI0IiB3aWR0aD0iMTg1LjU2MjUiPjxkaXYgc3R5bGU9ImRpc3BsYXk6IHRhYmxlLWNlbGw7IHdoaXRlLXNwYWNlOiBub3dyYXA7IGxpbmUtaGVpZ2h0OiAxLjU7IG1heC13aWR0aDogMjAwcHg7IHRleHQtYWxpZ246IGNlbnRlcjsiIHhtbG5zPSJodHRwOi8vd3d3LnczLm9yZy8xOTk5L3hodG1sIj48c3BhbiBjbGFzcz0ibm9kZUxhYmVsIj48cD5sb2dpbl9yZXF1ZXN0X21vZGVsLmRhcnQ8L3A+PC9zcGFuPjwvZGl2PjwvZm9yZWlnbk9iamVjdD48L2c+PC9nPjxnIHRyYW5zZm9ybT0idHJhbnNsYXRlKDQ2NS42OTk5OTY5NDgyNDIyLCAxOTMyKSIgaWQ9ImZsb3djaGFydC1MUmVzLTEzNCIgY2xhc3M9Im5vZGUgZGVmYXVsdCI+PHJlY3QgaGVpZ2h0PSI1NCIgd2lkdGg9IjI1NC4yNzUwMDkxNTUyNzM0NCIgeT0iLTI3IiB4PSItMTI3LjEzNzUwNDU3NzYzNjcyIiBzdHlsZT0iIiBjbGFzcz0iYmFzaWMgbGFiZWwtY29udGFpbmVyIj48L3JlY3Q+PGcgdHJhbnNmb3JtPSJ0cmFuc2xhdGUoLTk3LjEzNzUwNDU3NzYzNjcyLCAtMTIpIiBzdHlsZT0iIiBjbGFzcz0ibGFiZWwiPjxyZWN0PjwvcmVjdD48Zm9yZWlnbk9iamVjdCBoZWlnaHQ9IjI0IiB3aWR0aD0iMTk0LjI3NTAwOTE1NTI3MzQ0Ij48ZGl2IHN0eWxlPSJkaXNwbGF5OiB0YWJsZS1jZWxsOyB3aGl0ZS1zcGFjZTogbm93cmFwOyBsaW5lLWhlaWdodDogMS41OyBtYXgtd2lkdGg6IDIwMHB4OyB0ZXh0LWFsaWduOiBjZW50ZXI7IiB4bWxucz0iaHR0cDovL3d3dy53My5vcmcvMTk5OS94aHRtbCI+PHNwYW4gY2xhc3M9Im5vZGVMYWJlbCI+PHA+bG9naW5fcmVzcG9uc2VfbW9kZWwuZGFydDwvcD48L3NwYW4+PC9kaXY+PC9mb3JlaWduT2JqZWN0PjwvZz48L2c+PGcgdHJhbnNmb3JtPSJ0cmFuc2xhdGUoMTM5Mi41MzQzNjI3OTI5Njg4LCAxOTMyKSIgaWQ9ImZsb3djaGFydC1Qcm9kLTEzNSIgY2xhc3M9Im5vZGUgZGVmYXVsdCI+PHJlY3QgaGVpZ2h0PSI1NCIgd2lkdGg9IjE1MS40MDAwMDE1MjU4Nzg5IiB5PSItMjciIHg9Ii03NS43MDAwMDA3NjI5Mzk0NSIgc3R5bGU9IiIgY2xhc3M9ImJhc2ljIGxhYmVsLWNvbnRhaW5lciI+PC9yZWN0PjxnIHRyYW5zZm9ybT0idHJhbnNsYXRlKC00NS43MDAwMDA3NjI5Mzk0NSwgLTEyKSIgc3R5bGU9IiIgY2xhc3M9ImxhYmVsIj48cmVjdD48L3JlY3Q+PGZvcmVpZ25PYmplY3QgaGVpZ2h0PSIyNCIgd2lkdGg9IjkxLjQwMDAwMTUyNTg3ODkiPjxkaXYgc3R5bGU9ImRpc3BsYXk6IHRhYmxlLWNlbGw7IHdoaXRlLXNwYWNlOiBub3dyYXA7IGxpbmUtaGVpZ2h0OiAxLjU7IG1heC13aWR0aDogMjAwcHg7IHRleHQtYWxpZ246IGNlbnRlcjsiIHhtbG5zPSJodHRwOi8vd3d3LnczLm9yZy8xOTk5L3hodG1sIj48c3BhbiBjbGFzcz0ibm9kZUxhYmVsIj48cD5wcm9kdWN0LmRhcnQ8L3A+PC9zcGFuPjwvZGl2PjwvZm9yZWlnbk9iamVjdD48L2c+PC9nPjxnIHRyYW5zZm9ybT0idHJhbnNsYXRlKDE5MzkuMTYyNDgzMjE1MzMyLCAxOTMyKSIgaWQ9ImZsb3djaGFydC1JbnYtMTM2IiBjbGFzcz0ibm9kZSBkZWZhdWx0Ij48cmVjdCBoZWlnaHQ9IjU0IiB3aWR0aD0iMTQ2LjcwMDAwNDU3NzYzNjcyIiB5PSItMjciIHg9Ii03My4zNTAwMDIyODg4MTgzNiIgc3R5bGU9IiIgY2xhc3M9ImJhc2ljIGxhYmVsLWNvbnRhaW5lciI+PC9yZWN0PjxnIHRyYW5zZm9ybT0idHJhbnNsYXRlKC00My4zNTAwMDIyODg4MTgzNiwgLTEyKSIgc3R5bGU9IiIgY2xhc3M9ImxhYmVsIj48cmVjdD48L3JlY3Q+PGZvcmVpZ25PYmplY3QgaGVpZ2h0PSIyNCIgd2lkdGg9Ijg2LjcwMDAwNDU3NzYzNjcyIj48ZGl2IHN0eWxlPSJkaXNwbGF5OiB0YWJsZS1jZWxsOyB3aGl0ZS1zcGFjZTogbm93cmFwOyBsaW5lLWhlaWdodDogMS41OyBtYXgtd2lkdGg6IDIwMHB4OyB0ZXh0LWFsaWduOiBjZW50ZXI7IiB4bWxucz0iaHR0cDovL3d3dy53My5vcmcvMTk5OS94aHRtbCI+PHNwYW4gY2xhc3M9Im5vZGVMYWJlbCI+PHA+aW52b2ljZS5kYXJ0PC9wPjwvc3Bhbj48L2Rpdj48L2ZvcmVpZ25PYmplY3Q+PC9nPjwvZz48ZyB0cmFuc2Zvcm09InRyYW5zbGF0ZSgyMzcyLjE0Njg1MDU4NTkzNzUsIDE5MzIpIiBpZD0iZmxvd2NoYXJ0LU5hdi0xMzciIGNsYXNzPSJub2RlIGRlZmF1bHQiPjxyZWN0IGhlaWdodD0iNTQiIHdpZHRoPSIyMTcuNzYyNDk2OTQ4MjQyMiIgeT0iLTI3IiB4PSItMTA4Ljg4MTI0ODQ3NDEyMTEiIHN0eWxlPSIiIGNsYXNzPSJiYXNpYyBsYWJlbC1jb250YWluZXIiPjwvcmVjdD48ZyB0cmFuc2Zvcm09InRyYW5zbGF0ZSgtNzguODgxMjQ4NDc0MTIxMSwgLTEyKSIgc3R5bGU9IiIgY2xhc3M9ImxhYmVsIj48cmVjdD48L3JlY3Q+PGZvcmVpZ25PYmplY3QgaGVpZ2h0PSIyNCIgd2lkdGg9IjE1Ny43NjI0OTY5NDgyNDIyIj48ZGl2IHN0eWxlPSJkaXNwbGF5OiB0YWJsZS1jZWxsOyB3aGl0ZS1zcGFjZTogbm93cmFwOyBsaW5lLWhlaWdodDogMS41OyBtYXgtd2lkdGg6IDIwMHB4OyB0ZXh0LWFsaWduOiBjZW50ZXI7IiB4bWxucz0iaHR0cDovL3d3dy53My5vcmcvMTk5OS94aHRtbCI+PHNwYW4gY2xhc3M9Im5vZGVMYWJlbCI+PHA+bmF2aWdhdGlvbl9pdGVtcy5kYXJ0PC9wPjwvc3Bhbj48L2Rpdj48L2ZvcmVpZ25PYmplY3Q+PC9nPjwvZz48L2c+PC9nPjwvZz48L3N2Zz4=;" vertex="1" parent="1">
                        <mxGeometry x="-3340" y="-2120" width="4830" height="5180" as="geometry"/>
                    </mxCell>
                </UserObject>
            </root>
        </mxGraphModel>
    </diagram>
</mxfile>